<?xml version="1.0" encoding="utf-8"?>
<!-- Generator: Adobe Illustrator 27.1.1, SVG Export Plug-In . SVG Version: 6.00 Build 0)  -->
<svg version="1.1" id="Layer_1" xmlns="http://www.w3.org/2000/svg" xmlns:xlink="http://www.w3.org/1999/xlink" x="0px" y="0px"
	 viewBox="0 0 1920 300" style="enable-background:new 0 0 1920 300;" xml:space="preserve">
<style type="text/css">
</style>
<path class="st0" fill="white" d="M1966.88,42.75c-0.19-2.82-0.55-5.59-1.07-8.31c1.85,0.19,3.72,0.3,5.62,0.31
	c31.65,0.15,57.42-25.38,57.58-57.02c0.15-31.65-25.38-57.42-57.02-57.58c-4.13-0.02-8.16,0.42-12.04,1.23
	c-13.61-33.72-46.56-57.6-85.17-57.78c-13.06-0.06-25.5,2.61-36.78,7.44c-8.79-47.23-50.08-83.1-99.89-83.34
	c-5.27-0.03-10.46,0.35-15.52,1.1c-8.32-13.69-23.37-22.83-40.56-22.83c-11.24,0-21.56,3.91-29.68,10.43
	c-5.1-36.77-36.66-65.09-74.82-65.09c-24.62,0-46.48,11.78-60.27,30c-16.85-5.49-35.95-3.58-51.94,6.86
	c-9.89,6.46-17.27,15.33-21.86,25.32c-1.14-5.82-3.41-11.54-6.85-16.81c-14.34-21.94-43.72-28.08-65.65-13.75
	c-9.41,6.15-15.91,15.07-19.14,24.97c-24.38-27.99-66.29-34.43-98.24-13.55c-13.73,8.97-23.56,21.66-29.07,35.87
	c-7.6-5.18-16.78-8.2-26.67-8.2c-11.24,0-21.56,3.91-29.68,10.43c-5.1-36.77-36.66-65.09-74.82-65.09
	c-31.91,0-59.17,19.79-70.25,47.75c-4.01-0.74-8.14-1.13-12.36-1.13c-10.68,0-20.77,2.44-29.77,6.82
	c-6.23-13.9-20.17-23.59-36.4-23.59c-8.05,0-15.53,2.4-21.78,6.5c-16.93-25.33-45.76-42-78.51-42c-41.21,0-76.24,26.43-89.08,63.28
	c-7.05-1.85-14.45-2.85-22.08-2.85c-10.55,0-20.65,1.89-30,5.34c-13.88-11-31.42-17.58-50.5-17.58c-1.63,0-3.24,0.06-4.84,0.16
	c-12.77-39.05-49.47-67.26-92.78-67.26c-32.79,0-61.78,16.18-79.49,40.98c-7.51-5.41-16.69-8.63-26.65-8.63
	c-17.7,0-33.04,10.07-40.63,24.79c-2.49-0.32-5.02-0.49-7.59-0.49c-12.45,0-23.99,3.88-33.49,10.47
	c-9.23-6.41-20.39-10.23-32.43-10.45c-15.3-12.98-35.12-20.81-56.74-20.81c-11.87,0-23.18,2.37-33.5,6.63
	c-10.33-4.27-21.64-6.63-33.5-6.63c-40.78,0-75.01,27.77-84.88,65.44c-0.44,1.57-0.8,3.22-1.17,4.82c-3.47-1.02-7.16-1.57-11-1.57
	c-21.67,0-39.24,17.57-39.24,39.24c0,3.73,0.51,7.31,1.46,10.71c-2.12-0.22-4.31-0.33-6.5-0.33c-5.12,0-10.12,0.51-14.91,1.53
	C21.2-134.6-3.97-104.96-3.97-69.49c0,13.97,3.92,27.03,10.71,38.15C-2.25-19.76-7.58-5.21-7.5,10.6C-7.46,17.34-6.4,23.86-4.5,30
	h-172.97c-16.76,0-30.34,13.58-30.34,30.34c0,16.76,13.58,30.34,30.34,30.34c3.25,0,6.38-0.5,9.29-1.45
	c-0.52,2.77-0.78,5.62-0.78,8.53c0,26.72,21.67,48.36,48.38,48.36c15.12,0,28.64-6.95,37.5-17.8c6.95,34.47,37.39,60.43,73.92,60.43
	c15.34,0,29.63-4.58,41.53-12.47c-0.17,1.3-0.24,2.63-0.24,3.98c0,18.85,15.27,34.14,34.11,34.14c4.72,0,9.22-0.95,13.32-2.7
	c1.52,25.89,23,46.42,49.26,46.42c17.57,0,33-9.2,41.75-23.07c9.17,4.27,19.42,6.64,30.2,6.64c21.21,0,40.28-9.18,53.45-23.77
	c4-0.23,7.82-1.13,11.34-2.64c1.52,25.89,23,46.42,49.26,46.42c17.57,0,33-9.2,41.75-23.07c9.17,4.27,19.42,6.64,30.2,6.64
	c1.63,0,3.25-0.07,4.85-0.18c13.78,10.05,30.75,15.99,49.11,15.99c31.54,0,58.99-17.49,73.19-43.3c7.1,3.33,14.99,5.24,23.35,5.24
	c13.97,0,26.69-5.24,36.41-13.8c12.1,15.04,30.64,24.69,51.44,24.69c17.79,0,33.93-7.05,45.8-18.49
	c14.86,23.07,40.75,38.36,70.23,38.36c31.54,0,58.99-17.49,73.19-43.3c7.1,3.33,14.99,5.24,23.35,5.24
	c13.97,0,26.69-5.24,36.41-13.8c6.51,8.09,14.88,14.59,24.46,18.9c10.75,8.22,24.18,13.12,38.75,13.12
	c19.4,0,36.75-8.68,48.46-22.34c15.21,12.95,34.91,20.79,56.45,20.79c10.49,0,20.54-1.85,29.85-5.25
	c13.89,12.9,32.5,20.8,52.96,20.8c28.19,0,52.88-14.98,66.54-37.42c7.37,4.64,16.06,7.36,25.41,7.36c20.24,0,37.51-12.6,44.48-30.38
	c6.67,3.54,14.27,5.56,22.35,5.56c7.63,0,14.84-1.8,21.24-4.98c2.64,0.92,5.39,1.65,8.24,2.13c5.06,0.86,10.09,0.91,14.92,0.23
	c7.72,24.17,28.36,43.29,55.1,47.77c28.18,4.71,55.23-8.12,70.01-30.52c9.66,8.95,21.95,15.28,35.92,17.62
	c38.12,6.39,74.2-19.32,80.6-57.45c0.06-0.34,0.09-0.66,0.13-0.99c4.74,3.78,10.48,6.45,16.87,7.52c2.5,0.42,4.98,0.58,7.42,0.49
	c10.94,45.37,51.81,79.09,100.53,79.09c57.11,0,103.42-46.31,103.42-103.42c1.98,0,3.94-0.09,5.88-0.26
	c15.61,12.36,35.3,19.8,56.76,19.91c24.56,0.12,46.91-9.39,63.53-24.95c9.5,7.12,21.24,11.42,34.02,11.48
	c31.65,0.15,57.42-25.38,57.58-57.02C2016.14,70.77,1994.76,46.73,1966.88,42.75z"/>
</svg>
