<?xml version="1.0" encoding="utf-8"?>
<!-- Generator: Adobe Illustrator 27.1.1, SVG Export Plug-In . SVG Version: 6.00 Build 0)  -->
<svg version="1.1" id="Layer_1" xmlns="http://www.w3.org/2000/svg" xmlns:xlink="http://www.w3.org/1999/xlink" x="0px" y="0px"
	 viewBox="0 0 600 600" style="enable-background:new 0 0 600 600;" xml:space="preserve">
<style type="text/css">
	.st0{fill:#8E4D21;}
	.st1{fill:#D27328;}
	.st2{fill:#EF974A;}
	.st3{fill:#F8ABAA;}
	.st4{fill:#FFFFFF;}
	.st5{fill:#FCC28C;}
	.st6{fill:#4D3830;}
	.st7{fill:#61463D;}
</style>
<g>
	<g>
		<path class="st0" d="M138.66,204.5c4.26-1.23,8.48-2.69,12.37-4.85c1.48-0.82,0.16-3.08-1.32-2.26c-3.7,2.05-7.69,3.41-11.74,4.58
			C136.34,202.44,137.03,204.97,138.66,204.5L138.66,204.5z"/>
	</g>
	<path class="st1" d="M344.79,474.18c23.35-0.81,44.19,13.52,54.9,34.05c10.62,20.37,21.43,36.43,42.58,46.79
		c9.29,4.55,16.44,3.93,26.09,6.27c7.16,1.73,17.62,10.6,6.94,16c-4.24,2.15-8.02,0.49-12.04,0.1c-5.08-0.49-10.25,0.22-15.23-0.53
		c-8.31-1.25-16.68-2.3-24.51-5.34c-14.98-5.82-24.62-17.73-32.48-31.33c-7.42-12.82-13.78-27.23-28.96-32.07
		c-4.89-1.56-11.61-1.45-15.72-3.55L344.79,474.18z"/>
	<path class="st1" d="M451.41,162.36c0.21-17.22,20.3-22.93,13.92-43.5c-3.3-10.63-7.5-12.37-14.15-19.62
		c-4.58-4.99-5.65-17.95-11.01-27.02c-9.73-16.46-25.61-16.64-42.45-21.2c-17.2-4.66-21.33-24.78-40.88-25.97
		c-17.11-1.05-35.66,6.44-52.41-1.28c-8.62-3.97-13.17-9.83-23.06-10.25c-8.23-0.35-16,3.46-23.29,6.06
		c-8.05,2.88-17.05,7.06-25.97,6.52c-8.13-0.49-14.92-5.3-22.83-7.59c-16.78-4.88-35.6,1.83-45.56,16.97
		c-5.9,8.98-7.34,9.82-17.56,14.2c-10.02,4.3-20.6,10.17-24.63,21.49c-5.31,14.91,9.25,31.55,3.44,45.89
		c-7.35,18.13-12.44,27.2-3.2,46.58c3.79,7.96,6.69,12.39,6.57,21.78c-0.1,8.39-3.22,17.29,1.31,25.13
		c4.44,7.68,12.16,8.34,19.65,10.57c11.09,3.3,9.1,4.19,14.67,13.51c8.1,13.55,19.44,23.06,35.64,23.11h4.19
		c-0.98,0.97-2.31-0.11-2.02,2.15c4.45,2.36,8.84,3.9,13.52,5.15c18.64,5,40.7,1.15,59.77,3.99c17.05,2.54,34.4,3.59,51.36,5.47
		c13.7,1.52,44.52,3.81,56.6-2.62c7.21-3.83,7.55-10.75,13.57-14.73c5.85-3.86,15.34-2.31,22.07-7.49
		c7.89-6.07,7.97-12.75,11.59-20.7c3.7-8.13-2.28-16.16,5.41-21.26C459.04,192.23,451.18,181.23,451.41,162.36z"/>
	<path class="st2" d="M423.31,422.41c0.07,8.92-10.41,8.7-13.17,2.27c0.57,5.8-4.4,5.48-7.64,2.49c-2.69-2.48-4.71-7.11-6.28-10.39
		c-6.92-14.45-14.69-30.05-25.62-41.97c-11.42-12.45-29.96-27.97-47.06-29.04l7.65-70.57c2.11-2.52,23.57,12.23,27,14.85
		c13.1,10.01,25.4,24.7,34.51,38.28c21.27,31.72,31.02,57.39,37.15,81.09C432.18,418.44,429.02,427.92,423.31,422.41z"/>
	<g>
		<path class="st3" d="M413.22,411.54c-5.79,2.11-10.28-2.12-11.99-4.66c-2.38-3.53-3.62-7.85-2.42-12.03
			c1.18-4.15,5.96-6.62,9.99-5.29c3.38,1.12,7.94,4.17,9.5,7.64C420.96,403.12,420.25,408.98,413.22,411.54z"/>
		<path class="st3" d="M407.83,417.06c-0.53-1.73-2.06-2.79-3.41-2.38c-1.35,0.42-2.01,2.15-1.48,3.88
			c0.53,1.73,2.06,2.79,3.41,2.38C407.7,420.53,408.36,418.79,407.83,417.06z"/>
		<path class="st3" d="M417.79,419.06c-0.53-1.73-2.06-2.79-3.41-2.38c-1.35,0.42-2.01,2.15-1.48,3.88
			c0.53,1.73,2.06,2.79,3.41,2.38C417.66,422.53,418.32,420.79,417.79,419.06z"/>
		<path class="st3" d="M424.91,412.43c-0.53-1.73-2.06-2.79-3.41-2.38c-1.35,0.42-2.01,2.15-1.48,3.88
			c0.53,1.73,2.06,2.79,3.41,2.38C424.78,415.89,425.44,414.15,424.91,412.43z"/>
	</g>
	<rect x="379.38" y="451.65" class="st4" width="0" height="0"/>
	<path class="st2" d="M116.38,417.34c0.03,8.92,10.5,8.58,13.19,2.12c-0.51,5.81,4.46,5.43,7.67,2.41
		c2.66-2.51,4.63-7.16,6.16-10.46c6.76-14.53,14.35-30.21,25.15-42.25c11.28-12.58,29.64-28.31,46.73-29.57l-8.44-70.48
		c-2.14-2.49-23.43,12.49-26.83,15.15c-12.98,10.16-25.12,24.98-34.08,38.66c-20.91,31.95-30.37,57.73-36.24,81.5
		C107.47,413.47,110.73,422.91,116.38,417.34z"/>
	<path class="st2" d="M369.77,388.41c-9.51-70.97-24.08-95.67-41.37-139.69l-124.58-0.41c0,0-32.6,77.15-36.68,138.36
		c-3.14,47.17-2.62,90.72,21.75,177.16c5.28,18.74,24.37,31.73,22.95,14.86c3.51,3.77,10.47,6.93,14.34,3.84
		c1.91-1.52,1.69-4.27,1.41-7.01c16.06,11.39,6.47-21.35,5-30.53c-2.92-18.22,4.43-35.34,24.94-38.89
		c7.78-0.99,23.29,1.01,33.64,2.5c15.37,5.24,19.18,19.15,16.2,35.94c-1.62,9.16-11.76,41.73,4.49,30.61
		c-0.33,2.74-0.59,5.48,1.29,7.04c3.82,3.15,10.83,0.1,14.4-3.61c-1.7,16.84,17.6,4.17,23.2-14.48
		C376.55,478.06,374.32,422.3,369.77,388.41z"/>
	<path class="st5" d="M223.29,255.96c0,0-43.44,149.59,18.08,174.51c62.1,25.15,86.16-13.57,90.4-33.01
		c9.43-43.23-23.58-148.57-23.58-148.57L223.29,255.96z"/>
	<path class="st2" d="M284.45,70.14c-44.84-7.3-108.56,7.35-114.88,50.73c-14.42,98.89,29.57,138.53,90.1,153.27
		c64.24,15.64,126.14-18.56,140.32-92.75C412.4,116.49,366.04,83.42,284.45,70.14z"/>
	<path class="st2" d="M209.87,63.5c-9.27-7.9-18.39-8.19-29.78-4.19c-11.69,4.11-17.1,10.79-18.06,22.76
		c-0.75,9.28,3.3,22.32,13.27,25.2l50.33-24.05C220.5,80.13,215.99,68.72,209.87,63.5z"/>
	<path class="st2" d="M400.42,101.4c12.17,0.39,19.11,6.32,24.84,16.95c5.88,10.91,5.38,19.49-1.96,28.99
		c-5.7,7.37-17.46,14.28-26.77,9.71l-21.03-51.66C381.37,106.54,392.38,101.14,400.42,101.4z"/>
	<path class="st5" d="M205.34,75.85c-9.12-6.5-17.56-9.49-26.94-1.07c-7.71,6.92-3.55,21.19,5.45,25.21l21.01-24.06
		C205.13,75.81,205.77,76.5,205.34,75.85z"/>
	<path class="st5" d="M388.63,114.92c10.72-3.24,19.68-3.37,25.86,7.61c5.08,9.02-3.42,21.22-13.24,22.14l-12.2-29.52
		C388.84,114.95,388.02,115.4,388.63,114.92z"/>
	<path class="st6" d="M297.72,229.73c-0.09-0.71-0.69-1.18-1.34-1.05c-0.03,0.01-3.74,0.68-9.39-1.55
		c-5.33-2.11-8.47-7.68-9.22-12.28c-0.58-3.54,1.08-11.88,1.77-14.79c0.12-0.53-0.06-1.05-0.42-1.35c-0.08-0.55-0.48-0.98-1.01-1.03
		c-0.65-0.06-1.24,0.47-1.32,1.19c-0.35,2.97-1.63,11.37-3.38,14.52c-2.27,4.08-7.14,8.31-12.88,8.55c-6.09,0.25-9.35-1.6-9.38-1.62
		c-0.56-0.34-1.29-0.09-1.62,0.55c-0.33,0.64-0.14,1.43,0.43,1.76c0.09,0.06,1.54,0.9,4.27,1.45c1.64,0.33,3.74,0.57,6.28,0.46
		c7.07-0.29,12.4-5.44,14.85-9.79c0.02,0.23,0.05,0.46,0.08,0.67c0.8,4.91,4.08,11.57,10.67,14.17c2.36,0.93,4.42,1.4,6.08,1.63
		c2.76,0.37,4.41,0.05,4.52,0.03C297.36,231.12,297.81,230.44,297.72,229.73z"/>
	<path class="st6" d="M227.33,130.27c-0.64,3.12-3.68,5.13-6.8,4.5c-3.12-0.64-5.13-3.68-4.5-6.8c0.64-3.12,3.68-5.13,6.8-4.5
		C225.95,124.1,227.96,127.15,227.33,130.27z"/>
	<path class="st6" d="M362.14,155.47c-0.64,3.12-3.68,5.13-6.8,4.5c-3.12-0.64-5.13-3.68-4.5-6.8c0.64-3.12,3.68-5.13,6.8-4.5
		C360.77,149.3,362.78,152.35,362.14,155.47z"/>
	<path class="st6" d="M224.02,104.59c-2.94,0.2-15.7,1.36-14.55,6.26c0.44,1.19,1.52,1.6,11.68-0.62
		C228.89,108.54,227.06,104.38,224.02,104.59z"/>
	<path class="st6" d="M361.73,131.42c2.74,1.08,14.55,6.07,11.96,10.39c-0.78,1-1.94,1.06-10.94-4.14
		C355.89,133.7,358.9,130.29,361.73,131.42z"/>
	<g>
		<path class="st3" d="M126.34,406.36c5.81,2.05,10.26-2.24,11.93-4.79c2.34-3.55,3.53-7.89,2.29-12.05
			c-1.23-4.13-6.03-6.55-10.05-5.18c-3.37,1.16-7.89,4.26-9.41,7.75C118.51,398.02,119.28,403.87,126.34,406.36z"/>
		<path class="st3" d="M131.79,411.81c0.51-1.73,2.03-2.82,3.38-2.42c1.35,0.4,2.03,2.13,1.52,3.87c-0.51,1.73-2.03,2.82-3.38,2.42
			C131.96,415.28,131.28,413.55,131.79,411.81z"/>
		<path class="st3" d="M121.86,413.93c0.51-1.73,2.03-2.82,3.38-2.42c1.35,0.4,2.03,2.13,1.52,3.87c-0.51,1.73-2.03,2.82-3.38,2.42
			C122.03,417.39,121.35,415.66,121.86,413.93z"/>
		<path class="st3" d="M114.66,407.37c0.51-1.73,2.03-2.82,3.38-2.42c1.35,0.4,2.03,2.13,1.52,3.87c-0.51,1.73-2.03,2.82-3.38,2.42
			C114.83,410.84,114.15,409.1,114.66,407.37z"/>
	</g>
	<path class="st3" d="M217.49,168.79c-1.39,6.81-8.03,11.2-14.84,9.81c-6.81-1.39-11.2-8.03-9.81-14.84
		c1.39-6.81,8.03-11.2,14.84-9.81C214.49,155.34,218.88,161.99,217.49,168.79z"/>
	<path class="st3" d="M368.92,197.3c-1.39,6.81-8.03,11.2-14.84,9.81c-6.81-1.39-11.2-8.03-9.81-14.84
		c1.39-6.81,8.03-11.2,14.84-9.81C365.92,183.85,370.31,190.49,368.92,197.3z"/>
	<path class="st1" d="M295.01,63.83c-1.57,0-41.58,1.4-41.58,1.4l-4.89,0.35c0,0,16.77,17.29,20.96,37.73
		c4.19,20.44-2.45,70.92-2.45,70.92l34.24,5.94c0,0,8.9-48.41,16.25-62.89c12.05-23.76,40.35-30.4,40.35-30.4
		S296.58,63.83,295.01,63.83z"/>
	<g>
		<path class="st6" d="M249.96,176.61c-0.75,5.55,3.92,12.66,12.29,16.24c4.57,1.95,9.06,12.01,13.67,12.95
			c8.9,1.82,12.92-7.46,21.05-7.47c9.1-0.02,13.08-1.72,15.08-6.19c3.11-6.94-2.45-17.71-26.16-22.1
			C266.63,166.46,251.37,166.2,249.96,176.61z"/>
		<path class="st7" d="M256.95,180.8c1.39,3.56,5.61,1.58,8.32,0.83c3.62-1.01,6.63-1.55,10.44-1.01c3.05,0.43,10.83,1.64,9.63-3.93
			c-1.02-4.73-7.04-4.74-10.72-5.11c-4.32-0.44-8.63-1.25-12.85,0.38c-3.81,1.46-7.75,5.64-4.71,9.67L256.95,180.8z"/>
	</g>
	<g>
		<path class="st0" d="M139.71,203.45c4.05-1.21,8.39-2.9,11.84-5.37c1.36-0.97,0.06-3.25-1.32-2.26
			c-3.29,2.35-7.36,3.96-11.22,5.11C137.39,201.41,138.08,203.94,139.71,203.45L139.71,203.45z"/>
	</g>
	<g>
		<path class="st0" d="M145.78,187.6c3.09-1.48,6.53-2.25,9.75-3.38c1.02-0.36,5.07-2.27,2.3-3.59c-1.52-0.72-2.85,1.53-1.32,2.26
			c-2.02-0.97,0.75-2.23-0.64-1.59c-0.46,0.21-0.97,0.37-1.45,0.54c-1.12,0.39-2.26,0.75-3.39,1.12c-2.21,0.71-4.47,1.38-6.58,2.39
			C142.94,186.06,144.27,188.32,145.78,187.6L145.78,187.6z"/>
	</g>
	<g>
		<path class="st0" d="M130.8,170.96c3.75-1.17,7.72-1.22,11.53-2.1c1.65-0.38,0.95-2.9-0.7-2.53c-3.81,0.87-7.78,0.93-11.53,2.1
			C128.49,168.93,129.18,171.46,130.8,170.96L130.8,170.96z"/>
	</g>
	<g>
		<path class="st0" d="M128.18,157.33c1.73-0.72,3.94-0.74,5.77-0.96c1.63-0.2,3.26-0.39,4.89-0.56c1.66-0.18,1.68-2.8,0-2.62
			c-1.78,0.19-3.56,0.4-5.33,0.62c-1.91,0.24-4.22,0.26-6.02,1C125.94,155.44,126.62,157.98,128.18,157.33L128.18,157.33z"/>
	</g>
	<g>
		<path class="st0" d="M130.45,136.42c4.24-0.52,9.1-1.27,13.28-0.05c1.63,0.48,2.31-2.05,0.7-2.53c-4.44-1.3-9.47-0.59-13.97-0.05
			C128.79,134,128.77,136.62,130.45,136.42L130.45,136.42z"/>
	</g>
	<g>
		<path class="st0" d="M147.22,150.57c3.85,0,7.7,0.02,11.53,0.52c1.67,0.22,1.65-2.4,0-2.62c-3.83-0.5-7.68-0.52-11.53-0.52
			C145.53,147.95,145.53,150.57,147.22,150.57L147.22,150.57z"/>
	</g>
	<g>
		<path class="st0" d="M151.41,163.15c2.59,0,5.13-0.09,7.69-0.57c1.66-0.31,0.95-2.84-0.7-2.53c-2.32,0.44-4.64,0.48-6.99,0.48
			C149.72,160.53,149.72,163.15,151.41,163.15L151.41,163.15z"/>
	</g>
	<g>
		<path class="st0" d="M154.69,213.8c2.67-1.62,5.16-3.5,7.6-5.45c1.32-1.05-0.55-2.89-1.85-1.85c-2.27,1.81-4.59,3.53-7.07,5.04
			C151.93,212.41,153.24,214.68,154.69,213.8L154.69,213.8z"/>
	</g>
	<g>
		<path class="st0" d="M168.58,213.6c1.13-1.16,2.06-2.53,3.4-3.46c1.38-0.95,0.07-3.23-1.32-2.26c-1.56,1.07-2.63,2.54-3.93,3.87
			C165.55,212.95,167.4,214.81,168.58,213.6L168.58,213.6z"/>
	</g>
	<g>
		<path class="st0" d="M170.16,233.51c1.57-1.6,2.96-3.45,4.98-4.51c1.49-0.79,0.17-3.05-1.32-2.26c-2.22,1.17-3.77,3.16-5.51,4.92
			C167.12,232.86,168.97,234.72,170.16,233.51L170.16,233.51z"/>
	</g>
	<g>
		<path class="st0" d="M182.55,244.46c0.61-1.65,2.03-2.97,3.01-4.4c0.96-1.4-1.31-2.71-2.26-1.32c-1.14,1.66-2.57,3.11-3.28,5.03
			C179.43,245.35,181.97,246.03,182.55,244.46L182.55,244.46z"/>
	</g>
	<g>
		<path class="st0" d="M194.91,251.71c1.69,0,1.69-2.62,0-2.62C193.22,249.09,193.22,251.71,194.91,251.71L194.91,251.71z"/>
	</g>
	<g>
		<path class="st0" d="M196.04,251.06c1.07-1.6,2.11-3.2,2.75-5.03c0.57-1.6-1.97-2.28-2.53-0.7c-0.56,1.59-1.56,3.01-2.49,4.4
			C192.84,251.15,195.11,252.46,196.04,251.06L196.04,251.06z"/>
	</g>
	<g>
		<path class="st0" d="M132.02,118.07c4.12,0,8.19,0.07,12.23,1c1.64,0.38,2.34-2.15,0.7-2.53c-4.26-0.99-8.57-1.09-12.93-1.1
			C130.33,115.45,130.33,118.07,132.02,118.07L132.02,118.07z"/>
	</g>
	<g>
		<path class="st0" d="M152.46,133.8c2.62,0,5.24,0,7.86,0c1.69,0,1.69-2.62,0-2.62c-2.62,0-5.24,0-7.86,0
			C150.77,131.18,150.77,133.8,152.46,133.8L152.46,133.8z"/>
	</g>
	<g>
		<path class="st0" d="M155.08,117.03c1.69,0,1.69-2.62,0-2.62C153.39,114.41,153.39,117.03,155.08,117.03L155.08,117.03z"/>
	</g>
	<g>
		<path class="st0" d="M155.08,117.03c2.31,0.03,4.27,0.56,6.15,1.92c1.37,0.99,2.68-1.28,1.32-2.26c-2.24-1.61-4.74-2.24-7.47-2.28
			C153.39,114.39,153.39,117.01,155.08,117.03L155.08,117.03z"/>
	</g>
	<g>
		<path class="st0" d="M152.11,99.69c2.93,0.65,5.62,2.02,8.39,3.14c1.57,0.64,2.24-1.9,0.7-2.53c-2.76-1.12-5.46-2.5-8.38-3.14
			C151.16,96.79,150.46,99.32,152.11,99.69L152.11,99.69z"/>
	</g>
	<g>
		<path class="st0" d="M129.05,86.06c2.16,0.6,4.35,1.07,6.54,1.57c1.07,0.24,2.14,0.49,3.21,0.76c0.41,0.1,0.81,0.21,1.21,0.33
			c0.68,0.19,0.62,0.45,0.32-0.11c0.81,1.49,3.07,0.16,2.26-1.32c-0.7-1.29-3.38-1.49-4.6-1.78c-2.74-0.65-5.52-1.21-8.23-1.96
			C128.12,83.08,127.43,85.61,129.05,86.06L129.05,86.06z"/>
	</g>
	<g>
		<path class="st0" d="M134.29,100.21c1.3,0.3,2.64,0.44,3.98,0.44c0.86,0,2.08-0.01,2.8-0.57c1.32-1.02,0.01-3.3-1.32-2.26
			c-0.36,0.28-1.27,0.21-1.79,0.21c-1,0-1.99-0.12-2.96-0.35C133.34,97.3,132.65,99.83,134.29,100.21L134.29,100.21z"/>
	</g>
	<g>
		<path class="st0" d="M135.29,66.33c1.72,1.54,4.16,2.34,6.29,3.13c1.74,0.64,4.6,2,6.51,1.4c1.61-0.5,0.92-3.04-0.7-2.53
			c-1.02,0.32-3.52-0.84-4.62-1.22c-1.82-0.63-4.17-1.32-5.63-2.63C135.89,63.35,134.03,65.2,135.29,66.33L135.29,66.33z"/>
	</g>
	<g>
		<path class="st0" d="M144.77,80.29c1.21,0.29,2.44,0.5,3.67,0.71c1.07,0.19,2.35,0.28,3.36,0.73c1.53,0.68,2.87-1.58,1.32-2.26
			c-2.37-1.05-5.15-1.1-7.65-1.7C143.83,77.37,143.13,79.9,144.77,80.29L144.77,80.29z"/>
	</g>
	<g>
		<path class="st0" d="M184.87,26.24c2.16,4.03,2.67,8.73,5.24,12.58c0.93,1.4,3.2,0.09,2.26-1.32c-2.56-3.83-3.08-8.55-5.24-12.58
			C186.33,23.43,184.07,24.75,184.87,26.24L184.87,26.24z"/>
	</g>
	<g>
		<path class="st0" d="M204.65,37.45c1.61,4.04,1.74,8.48,3.8,12.37c0.79,1.49,3.05,0.17,2.26-1.32c-1.94-3.66-2.02-7.92-3.54-11.74
			C206.56,35.21,204.03,35.88,204.65,37.45L204.65,37.45z"/>
	</g>
	<g>
		<path class="st0" d="M214.61,54.75c0.35,2.35,1.01,9.03,4.76,8.25c1.65-0.34,0.95-2.87-0.7-2.53c0.35,0.14,0.42,0.11,0.19-0.08
			c-0.12-0.18-0.22-0.36-0.32-0.55c-0.25-0.48-0.4-1.03-0.55-1.55c-0.41-1.38-0.65-2.81-0.86-4.23
			C216.89,52.38,214.36,53.1,214.61,54.75L214.61,54.75z"/>
	</g>
	<g>
		<path class="st0" d="M221.37,32.39c0.08,2.83,1.03,5.47,1.62,8.21c0.35,1.65,2.88,0.95,2.53-0.7c-0.53-2.5-1.45-4.94-1.53-7.51
			C223.95,30.7,221.33,30.7,221.37,32.39L221.37,32.39z"/>
	</g>
	<g>
		<path class="st0" d="M227.19,53.18c0.56,2.66,1.42,5.23,2.1,7.86c0.42,1.64,2.95,0.94,2.53-0.7c-0.68-2.63-1.54-5.2-2.1-7.86
			C229.37,50.83,226.84,51.53,227.19,53.18L227.19,53.18z"/>
	</g>
	<g>
		<path class="st0" d="M176.16,36.46c2.1,2.62,4.19,5.24,6.29,7.86c1.06,1.32,2.9-0.55,1.85-1.85c-2.1-2.62-4.19-5.24-6.29-7.86
			C176.96,33.29,175.12,35.15,176.16,36.46L176.16,36.46z"/>
	</g>
	<g>
		<path class="st0" d="M170.28,46.8c1.69,0,1.69-2.62,0-2.62C168.59,44.18,168.59,46.8,170.28,46.8L170.28,46.8z"/>
	</g>
	<g>
		<path class="st0" d="M169.62,46.62c1.79,1.36,3.39,2.93,4.98,4.51c1.2,1.2,3.05-0.66,1.85-1.85c-1.75-1.75-3.53-3.42-5.51-4.92
			C169.59,43.34,168.29,45.61,169.62,46.62L169.62,46.62z"/>
	</g>
	<g>
		<path class="st0" d="M151.59,53.57c3.01,1.04,5.86,2.44,8.6,4.06c1.46,0.86,2.77-1.4,1.32-2.26c-2.93-1.74-6-3.21-9.22-4.32
			C150.68,50.49,150,53.02,151.59,53.57L151.59,53.57z"/>
	</g>
	<g>
		<path class="st0" d="M148.13,61.82c1.83,1.08,3.72,2.06,5.67,2.89c1.21,0.52,2.89,1.36,4.25,0.91c1.6-0.53,0.91-3.06-0.7-2.53
			c-0.82,0.27-2.73-0.86-3.5-1.21c-1.51-0.69-2.97-1.48-4.4-2.33C147.99,58.69,146.68,60.96,148.13,61.82L148.13,61.82z"/>
	</g>
	<g>
		<path class="st0" d="M242.52,56.11c1.47,2.51,2.41,5.25,3.67,7.86c0.73,1.52,2.99,0.19,2.26-1.32c-1.26-2.61-2.2-5.35-3.67-7.86
			C243.93,53.33,241.66,54.65,242.52,56.11L242.52,56.11z"/>
	</g>
	<g>
		<path class="st0" d="M263.78,65.23c1.06-4.59,1.13-9.31,1.62-13.97c0.17-1.68-2.45-1.66-2.62,0c-0.46,4.43-0.52,8.92-1.53,13.28
			C260.87,66.18,263.4,66.88,263.78,65.23L263.78,65.23z"/>
	</g>
	<g>
		<path class="st0" d="M258.06,48.63c0.09-4.67,1.45-9.54-1.23-13.76c-0.9-1.42-3.17-0.11-2.26,1.32c2.35,3.71,0.95,8.33,0.87,12.44
			C255.41,50.33,258.03,50.32,258.06,48.63L258.06,48.63z"/>
	</g>
	<g>
		<path class="st0" d="M237.14,34.31c1.16,3.06,1.65,6.34,3.28,9.22c0.83,1.47,3.09,0.15,2.26-1.32c-1.51-2.67-1.93-5.75-3.01-8.6
			C239.08,32.05,236.54,32.73,237.14,34.31L237.14,34.31z"/>
	</g>
	<g>
		<path class="st0" d="M276.93,20.86c-0.04,3.33-0.49,6.63-0.52,9.96c-0.02,1.69,2.6,1.69,2.62,0c0.03-3.33,0.49-6.63,0.52-9.96
			C279.57,19.17,276.95,19.17,276.93,20.86L276.93,20.86z"/>
	</g>
	<g>
		<path class="st0" d="M271.16,38.15c0.04,2.78,0.55,5.49,1.09,8.21c0.33,1.66,2.86,0.95,2.53-0.7c-0.5-2.49-0.96-4.97-1-7.51
			C273.76,36.47,271.14,36.46,271.16,38.15L271.16,38.15z"/>
	</g>
	<g>
		<path class="st0" d="M281.07,61.04c0.61-2.87,1.69-5.61,2.62-8.39c0.54-1.61-1.99-2.29-2.53-0.7c-0.93,2.78-2.01,5.51-2.62,8.39
			C278.19,61.99,280.72,62.69,281.07,61.04L281.07,61.04z"/>
	</g>
	<g>
		<path class="st0" d="M294.04,63.97c1.85-3.09,3.62-6.22,5.24-9.43c0.76-1.5-1.5-2.83-2.26-1.32c-1.62,3.21-3.39,6.35-5.24,9.43
			C290.91,64.1,293.18,65.42,294.04,63.97L294.04,63.97z"/>
	</g>
	<g>
		<path class="st0" d="M294.7,46.36c0.6-4.17,2.03-8.16,2.14-12.4c0.04-1.69-2.58-1.69-2.62,0c-0.1,4-1.49,7.77-2.05,11.71
			C291.94,47.32,294.46,48.03,294.7,46.36L294.7,46.36z"/>
	</g>
	<g>
		<path class="st0" d="M290.55,30.82c0.03-2.02,0.39-4.02,1-5.94c0.52-1.61-2.01-2.3-2.53-0.7c-0.68,2.13-1.06,4.4-1.09,6.64
			C287.91,32.51,290.53,32.5,290.55,30.82L290.55,30.82z"/>
	</g>
	<g>
		<path class="st0" d="M310.29,68.69c2.3-4.09,4.21-8.38,6.29-12.58c0.75-1.51-1.51-2.84-2.26-1.32c-2.08,4.2-3.99,8.49-6.29,12.58
			C307.2,68.84,309.46,70.16,310.29,68.69L310.29,68.69z"/>
	</g>
	<g>
		<path class="st0" d="M321.87,71.25c2.97-1.8,5.89-3.8,8.13-6.49c1.07-1.29-0.77-3.16-1.85-1.85c-2.1,2.54-4.8,4.39-7.6,6.08
			C319.11,69.86,320.42,72.13,321.87,71.25L321.87,71.25z"/>
	</g>
	<g>
		<path class="st0" d="M329.29,55.8c1.3-4.43,5.57-7.27,7.34-11.53c0.65-1.56-1.89-2.23-2.53-0.7c-1.78,4.29-6,6.98-7.34,11.53
			C326.28,56.72,328.81,57.41,329.29,55.8L329.29,55.8z"/>
	</g>
	<g>
		<path class="st0" d="M320.38,47.94c1.57-4.84,2.62-9.83,4.19-14.67c0.52-1.61-2.01-2.3-2.53-0.7c-1.57,4.84-2.62,9.83-4.19,14.67
			C317.33,48.85,319.86,49.54,320.38,47.94L320.38,47.94z"/>
	</g>
	<g>
		<path class="st0" d="M307.32,42.35c0.03-3.24,0.54-6.41,1-9.61c0.24-1.65-2.28-2.36-2.53-0.7c-0.5,3.43-1.06,6.83-1.09,10.31
			C304.68,44.04,307.31,44.03,307.32,42.35L307.32,42.35z"/>
	</g>
	<g>
		<path class="st0" d="M336.29,76.81c3.45-3.48,6.76-7.11,11.26-9.23c1.53-0.72,0.2-2.98-1.32-2.26c-4.7,2.21-8.19,6.01-11.79,9.64
			C333.24,76.16,335.1,78.01,336.29,76.81L336.29,76.81z"/>
	</g>
	<g>
		<path class="st0" d="M351.69,85.46c2.4-4.04,5.69-7.43,7.47-11.84c0.63-1.57-1.9-2.24-2.53-0.7c-1.68,4.16-4.94,7.4-7.2,11.22
			C348.56,85.59,350.83,86.91,351.69,85.46L351.69,85.46z"/>
	</g>
	<g>
		<path class="st0" d="M356.01,61.56c1.28-4.05,4.09-7.4,5.24-11.53c0.45-1.63-2.07-2.32-2.53-0.7c-1.15,4.11-3.96,7.47-5.24,11.53
			C352.98,62.48,355.51,63.17,356.01,61.56L356.01,61.56z"/>
	</g>
	<g>
		<path class="st0" d="M341.73,54.54c1.7-2.79,3.68-5.43,4.32-8.7c0.33-1.65-2.2-2.35-2.53-0.7c-0.6,3.04-2.48,5.48-4.06,8.07
			C338.59,54.66,340.85,55.98,341.73,54.54L341.73,54.54z"/>
	</g>
	<g>
		<path class="st0" d="M354.11,38.56c2.03-2.11,3.42-4.7,4.53-7.39c0.64-1.56-1.89-2.24-2.53-0.7c-0.93,2.25-2.16,4.47-3.86,6.23
			C351.08,37.92,352.93,39.78,354.11,38.56L354.11,38.56z"/>
	</g>
	<g>
		<path class="st0" d="M361.44,87.82c2.92-3.36,6.82-5.9,10.95-7.52c1.55-0.61,0.88-3.14-0.7-2.53c-4.55,1.78-8.88,4.49-12.11,8.2
			C358.49,87.24,360.33,89.1,361.44,87.82L361.44,87.82z"/>
	</g>
	<g>
		<path class="st0" d="M373.23,93.79c3.29-1.59,6.8-2.65,10.17-4.06c1.53-0.64,0.86-3.18-0.7-2.53c-3.58,1.5-7.3,2.63-10.79,4.32
			C370.39,92.26,371.72,94.52,373.23,93.79L373.23,93.79z"/>
	</g>
	<g>
		<path class="st0" d="M383.66,82.31c2-3.66,6.3-5.8,9.23-8.64c1.21-1.18-0.64-3.03-1.85-1.85c-3.12,3.04-7.5,5.25-9.64,9.17
			C380.59,82.47,382.85,83.8,383.66,82.31L383.66,82.31z"/>
	</g>
	<g>
		<path class="st0" d="M367.94,71.83c1.7-3.28,4.06-6.15,5.76-9.43c0.78-1.5-1.48-2.82-2.26-1.32c-1.7,3.28-4.06,6.15-5.76,9.43
			C364.9,72.01,367.16,73.33,367.94,71.83L367.94,71.83z"/>
	</g>
	<g>
		<path class="st0" d="M381.56,68.16c1.64-3.14,4.12-5.63,6.61-8.12c1.2-1.2-0.66-3.05-1.85-1.85c-2.63,2.64-5.28,5.32-7.02,8.65
			C378.52,68.34,380.78,69.66,381.56,68.16L381.56,68.16z"/>
	</g>
	<g>
		<path class="st0" d="M365.23,58.85c1.69,0,1.69-2.62,0-2.62C363.54,56.23,363.54,58.85,365.23,58.85L365.23,58.85z"/>
	</g>
	<g>
		<path class="st0" d="M366.36,58.21c1.7-2.79,3.68-5.43,4.32-8.7c0.33-1.65-2.2-2.35-2.53-0.7c-0.6,3.04-2.48,5.48-4.06,8.07
			C363.22,58.33,365.49,59.64,366.36,58.21L366.36,58.21z"/>
	</g>
	<g>
		<path class="st0" d="M368.59,41.12c0.45-1.27,1.45-2.15,2.54-2.89c1.39-0.94,0.08-3.21-1.32-2.26c-1.7,1.15-3.05,2.49-3.75,4.45
			C365.5,42.02,368.03,42.7,368.59,41.12L368.59,41.12z"/>
	</g>
	<g>
		<path class="st0" d="M379.6,53.18c0.49-1.33,2.03-1.9,3.28-2.23c1.63-0.43,0.94-2.96-0.7-2.53c-2.25,0.59-4.28,1.79-5.11,4.06
			C376.49,54.07,379.02,54.75,379.6,53.18L379.6,53.18z"/>
	</g>
	<g>
		<path class="st0" d="M384.84,100.34c0.56-1.81,3.86-3.11,5.36-3.93c2.35-1.27,4.8-2.37,7.14-3.67c1.48-0.82,0.15-3.09-1.32-2.26
			c-2.73,1.52-5.58,2.8-8.31,4.32c-1.97,1.1-4.68,2.53-5.39,4.85C381.81,101.27,384.34,101.95,384.84,100.34L384.84,100.34z"/>
	</g>
	<g>
		<path class="st0" d="M403.84,99.16c5.09-2.1,8.66-6.74,11.79-11.08c0.99-1.37-1.29-2.68-2.26-1.32
			c-2.66,3.69-5.88,8.09-10.22,9.88C401.6,97.27,402.28,99.81,403.84,99.16L403.84,99.16z"/>
	</g>
	<g>
		<path class="st0" d="M403.89,86.25c2.71-3.22,5.67-6.21,8.39-9.43c1.08-1.28-0.76-3.15-1.85-1.85c-2.71,3.22-5.67,6.21-8.39,9.43
			C400.96,85.68,402.8,87.54,403.89,86.25L403.89,86.25z"/>
	</g>
	<g>
		<path class="st0" d="M394.06,84.01c1.69,0,1.69-2.62,0-2.62C392.37,81.39,392.37,84.01,394.06,84.01L394.06,84.01z"/>
	</g>
	<g>
		<path class="st0" d="M394.98,83.1c2.48-2.48,4.87-4.98,6.49-8.13c0.77-1.5-1.49-2.82-2.26-1.32c-1.53,2.95-3.76,5.27-6.08,7.6
			C391.93,82.45,393.79,84.3,394.98,83.1L394.98,83.1z"/>
	</g>
	<g>
		<path class="st0" d="M402.13,65.23c0.51-1.89,1.95-2.87,3.8-3.28c1.65-0.36,0.95-2.89-0.7-2.53c-2.73,0.59-4.89,2.37-5.63,5.11
			C399.16,66.17,401.69,66.86,402.13,65.23L402.13,65.23z"/>
	</g>
	<g>
		<path class="st0" d="M422.49,81.21c2.16-1.65,4.11-3.53,6.03-5.45c1.2-1.2-0.66-3.05-1.85-1.85c-1.76,1.75-3.52,3.53-5.5,5.04
			C419.85,79.96,421.15,82.24,422.49,81.21L422.49,81.21z"/>
	</g>
	<g>
		<path class="st0" d="M416.99,71.57c1.77-1.72,3.83-2.89,6.02-3.99c1.51-0.76,0.18-3.02-1.32-2.26c-2.39,1.2-4.62,2.52-6.55,4.4
			C413.93,70.9,415.78,72.75,416.99,71.57L416.99,71.57z"/>
	</g>
	<g>
		<path class="st0" d="M417.52,103.02c2.72-2.64,6.02-4.53,9.17-6.61c1.4-0.93,0.09-3.2-1.32-2.26c-3.33,2.2-6.81,4.22-9.7,7.02
			C414.45,102.34,416.3,104.19,417.52,103.02L417.52,103.02z"/>
	</g>
	<g>
		<path class="st0" d="M428.99,90.25c2.82-1.16,5.49-2.67,8.38-3.67c1.59-0.55,0.9-3.08-0.7-2.53c-2.9,1-5.56,2.5-8.38,3.67
			C426.76,88.36,427.43,90.9,428.99,90.25L428.99,90.25z"/>
	</g>
	<g>
		<path class="st0" d="M425.33,112.26c2.93-1.15,5.97-2,8.91-3.14c1.56-0.61,0.88-3.14-0.7-2.53c-2.93,1.15-5.97,2-8.91,3.14
			C423.07,110.34,423.75,112.88,425.33,112.26L425.33,112.26z"/>
	</g>
	<g>
		<path class="st0" d="M432.31,102.88c1.69,0,1.69-2.62,0-2.62C430.62,100.26,430.62,102.88,432.31,102.88L432.31,102.88z"/>
	</g>
	<g>
		<path class="st0" d="M432.98,102.7c2.95-1.44,6.06-2.54,8.91-4.19c1.46-0.85,0.14-3.11-1.32-2.26c-2.85,1.66-5.96,2.75-8.91,4.19
			C430.13,101.18,431.46,103.44,432.98,102.7L432.98,102.7z"/>
	</g>
	<g>
		<path class="st0" d="M440.52,112.79c3.37-0.49,6.72-0.97,10.13-1c1.69-0.02,1.69-2.64,0-2.62c-3.65,0.04-7.23,0.58-10.83,1.1
			C438.16,110.5,438.87,113.02,440.52,112.79L440.52,112.79z"/>
	</g>
	<g>
		<path class="st0" d="M434.06,124.84c1.31,0.47,2.98,0.13,4.32,0.01c2.17-0.2,4.33-0.46,6.51-0.49c1.69-0.02,1.69-2.64,0-2.62
			c-1.98,0.03-3.96,0.24-5.93,0.43c-1.23,0.12-3,0.57-4.2,0.14C433.16,121.75,432.48,124.28,434.06,124.84L434.06,124.84z"/>
	</g>
	<g>
		<path class="st0" d="M450.66,124.89c1.49,0,2.93,0.03,4.37,0.48c1.62,0.5,2.31-2.03,0.7-2.53c-1.65-0.51-3.35-0.57-5.07-0.57
			C448.97,122.27,448.97,124.89,450.66,124.89L450.66,124.89z"/>
	</g>
	<g>
		<path class="st0" d="M434.06,138.99c3.08,0.65,6.09,1.55,9.26,1.62c1.69,0.04,1.69-2.58,0-2.62c-2.94-0.07-5.71-0.93-8.56-1.53
			C433.11,136.12,432.41,138.64,434.06,138.99L434.06,138.99z"/>
	</g>
	<g>
		<path class="st0" d="M445.28,134.14c2.46,1.83,5.15,3.63,8.17,4.32c1.65,0.38,2.34-2.15,0.7-2.53c-2.8-0.64-5.27-2.37-7.55-4.06
			C445.24,130.87,443.94,133.15,445.28,134.14L445.28,134.14z"/>
	</g>
	<g>
		<path class="st0" d="M405.59,167.34c1.69,0,1.69-2.62,0-2.62C403.9,164.72,403.9,167.34,405.59,167.34L405.59,167.34z"/>
	</g>
	<g>
		<path class="st0" d="M405.24,167.29c4.62,1.5,9.44,2.48,13.84,4.58c1.52,0.73,2.85-1.53,1.32-2.26
			c-4.61-2.21-9.62-3.27-14.46-4.85C404.32,164.24,403.64,166.77,405.24,167.29L405.24,167.29z"/>
	</g>
	<g>
		<path class="st0" d="M421.45,161.92c0.77-0.55,3.39,0.57,4.21,0.81c1.74,0.5,3.47,1.09,5.26,1.42c1.65,0.31,2.36-2.22,0.7-2.53
			c-2.3-0.43-4.52-1.23-6.77-1.84c-1.34-0.36-3.45-1.04-4.72-0.12C418.77,160.63,420.07,162.91,421.45,161.92L421.45,161.92z"/>
	</g>
	<g>
		<path class="st0" d="M430.22,153.19c4.03,0.04,7.95,0.53,11.71,2.05c1.57,0.63,2.24-1.9,0.7-2.53c-3.96-1.6-8.15-2.1-12.4-2.14
			C428.53,150.55,428.53,153.17,430.22,153.19L430.22,153.19z"/>
	</g>
	<g>
		<path class="st0" d="M437.03,166.81c3.02,0,6.1-0.07,9.09,0.48c1.65,0.3,2.36-2.22,0.7-2.53c-3.23-0.59-6.51-0.57-9.78-0.57
			C435.34,164.19,435.34,166.81,437.03,166.81L437.03,166.81z"/>
	</g>
	<g>
		<path class="st0" d="M430.74,180.44c2.19,0,4.38,0.02,6.57,0.14c2.04,0.11,5.01,0.16,6.66,1.57c1.27,1.1,3.14-0.75,1.85-1.85
			c-3.73-3.2-10.53-2.48-15.08-2.48C429.05,177.82,429.05,180.44,430.74,180.44L430.74,180.44z"/>
	</g>
	<g>
		<path class="st0" d="M403.14,184.59c2.55,0.54,4.91,1.48,7.02,3.01c1.37,0.99,2.68-1.28,1.32-2.26c-2.28-1.65-4.9-2.69-7.65-3.28
			C402.19,181.71,401.49,184.23,403.14,184.59L403.14,184.59z"/>
	</g>
	<g>
		<path class="st0" d="M409.43,178.82c2.57,1.05,5.06,2.29,7.55,3.54c1.51,0.75,2.83-1.51,1.32-2.26c-2.69-1.34-5.39-2.67-8.17-3.8
			C408.56,175.66,407.89,178.19,409.43,178.82L409.43,178.82z"/>
	</g>
	<g>
		<path class="st0" d="M418.86,192.97c4.24,1.63,8.34,3.61,12.58,5.24c1.58,0.61,2.26-1.93,0.7-2.53
			c-4.24-1.63-8.33-3.61-12.58-5.24C417.98,189.84,417.3,192.37,418.86,192.97L418.86,192.97z"/>
	</g>
	<g>
		<path class="st0" d="M435.63,190.87c2.1,0.52,4.19,1.05,6.29,1.57c1.64,0.41,2.34-2.12,0.7-2.53c-2.1-0.52-4.19-1.05-6.29-1.57
			C434.69,187.94,434,190.46,435.63,190.87L435.63,190.87z"/>
	</g>
	<g>
		<path class="st0" d="M395.8,205.55c3.39,0.61,6.63,1.76,9.96,2.62c1.64,0.42,2.33-2.1,0.7-2.53c-3.32-0.86-6.57-2.01-9.96-2.62
			C394.85,202.73,394.14,205.25,395.8,205.55L395.8,205.55z"/>
	</g>
	<g>
		<path class="st0" d="M404.4,198.08c3.28,2.48,7.58,3.75,11.67,3.85c1.69,0.04,1.69-2.58,0-2.62c-3.66-0.08-7.41-1.27-10.34-3.49
			C404.37,194.8,403.07,197.07,404.4,198.08L404.4,198.08z"/>
	</g>
	<g>
		<path class="st0" d="M413.97,215.03c1.69,0,1.69-2.62,0-2.62C412.28,212.41,412.28,215.03,413.97,215.03L413.97,215.03z"/>
	</g>
	<g>
		<path class="st0" d="M413.62,214.98c2.41,0.52,4.81,1.4,7.02,2.49c1.51,0.74,2.84-1.52,1.32-2.26c-2.42-1.18-5.02-2.19-7.65-2.75
			C412.67,212.1,411.97,214.63,413.62,214.98L413.62,214.98z"/>
	</g>
	<g>
		<path class="st0" d="M401.26,220.61c1.99,1.2,3.97,2.41,5.97,3.59c1.25,0.74,2.83,2.04,4.3,2.31c1.65,0.3,2.36-2.22,0.7-2.53
			c-1.09-0.2-2.94-1.6-4.08-2.28c-1.86-1.1-3.71-2.24-5.56-3.35C401.13,217.48,399.81,219.74,401.26,220.61L401.26,220.61z"/>
	</g>
	<g>
		<path class="st0" d="M389.65,229.79c0.28,1.21,1.95,2.24,2.83,2.96c1.5,1.24,3.04,2.42,4.59,3.59c1.35,1.02,2.66-1.26,1.32-2.26
			c-1.28-0.96-2.55-1.95-3.8-2.96c-0.56-0.46-1.12-0.92-1.66-1.4c-0.23-0.2-0.45-0.41-0.67-0.63c-0.27-0.27-0.16-0.32-0.09,0.01
			C391.8,227.44,389.27,228.14,389.65,229.79L389.65,229.79z"/>
	</g>
	<g>
		<path class="st0" d="M410.48,239.61c0.77,0.28,1.73,0.98,2.49,1.52c0.49,0.35,1.13,1.05,1.76,1.17c1.21,0.23,1.94-0.85,1.48-1.92
			c-0.05-0.12-0.17-0.23-0.26-0.33c-1.18-1.22-3.03,0.64-1.85,1.85c0.1,0.11,0.05,0.04-0.15-0.2c0.49-0.64,0.99-1.28,1.48-1.92
			c0.36,0.07,0.33,0.16,0.13,0.02c-0.12-0.08-0.23-0.17-0.35-0.26c-0.41-0.3-0.81-0.6-1.23-0.88c-0.88-0.62-1.79-1.2-2.81-1.56
			C409.58,236.51,408.9,239.05,410.48,239.61L410.48,239.61z"/>
	</g>
	<g>
		<path class="st0" d="M392.75,216.86c0.08,0.85,0.56,1.54,1.04,2.22c0.59,0.84,1.25,1.64,1.97,2.38c1.19,1.21,3.04-0.65,1.85-1.85
			c-0.52-0.53-1-1.09-1.44-1.69c-0.22-0.29-0.42-0.6-0.62-0.91c-0.08-0.12-0.14-0.25-0.21-0.38c0.13,0.25-0.02-0.25,0.03,0.22
			c-0.07-0.71-0.54-1.31-1.31-1.31C393.4,215.55,392.68,216.15,392.75,216.86L392.75,216.86z"/>
	</g>
	<g>
		<path class="st0" d="M366.14,252.58c2.74,1.72,4.82,4.33,7.07,6.61c1.19,1.2,3.04-0.65,1.85-1.85c-2.42-2.45-4.65-5.17-7.6-7.02
			C366.03,249.42,364.72,251.69,366.14,252.58L366.14,252.58z"/>
	</g>
	<g>
		<path class="st0" d="M377.67,243.15c2.57,1.93,5.12,3.77,8.17,4.85c1.6,0.56,2.28-1.97,0.7-2.53c-2.82-1-5.18-2.81-7.55-4.58
			C377.64,239.87,376.34,242.15,377.67,243.15L377.67,243.15z"/>
	</g>
	<g>
		<path class="st0" d="M393.65,244.52c1.41,1.4,2.87,2.79,4.77,3.48c1.59,0.58,2.27-1.95,0.7-2.53c-1.43-0.52-2.56-1.76-3.61-2.81
			C394.31,241.47,392.46,243.32,393.65,244.52L393.65,244.52z"/>
	</g>
	<g>
		<path class="st0" d="M380.61,256.38c1.48,0.55,2.57,2.34,3.41,3.59c0.94,1.39,3.21,0.08,2.26-1.32c-1.28-1.9-2.75-3.96-4.98-4.79
			C379.72,253.26,379.04,255.8,380.61,256.38L380.61,256.38z"/>
	</g>
	<g>
		<path class="st0" d="M352.96,262.28c0.63,2.38,1.77,4.56,3.48,6.34c1.17,1.22,3.03-0.64,1.85-1.85c-1.41-1.46-2.29-3.23-2.81-5.19
			C355.06,259.95,352.53,260.65,352.96,262.28L352.96,262.28z"/>
	</g>
	<g>
		<path class="st0" d="M364.63,264.17c1.11,2.16,2.56,4.13,3.67,6.29c0.77,1.5,3.04,0.18,2.26-1.32c-1.11-2.16-2.56-4.13-3.67-6.29
			C366.11,261.34,363.85,262.67,364.63,264.17L364.63,264.17z"/>
	</g>
	<g>
		<path class="st0" d="M344.13,269.88c0.4,0.22,0.58,0.4,0.82,0.78c0.31,0.49,0.49,1.04,0.68,1.58c0.54,1.59,3.07,0.91,2.53-0.7
			c-0.52-1.54-1.19-3.12-2.7-3.93C343.96,266.82,342.64,269.08,344.13,269.88L344.13,269.88z"/>
	</g>
	<path class="st0" d="M478.97,556.45c-3.51-0.74-6.64-0.54-9.97,0.54c-2.2,0.71-6.46,2.94-6.81,2.62h-1.05
		c3.16,6.15,3.19,12.08-1.49,17.69c9.54,7.5,31.37,10.14,31.36-7.73C491.01,563.1,484.83,557.68,478.97,556.45z"/>
</g>
</svg>
