<?xml version="1.0" encoding="utf-8"?>
<!-- Generator: Adobe Illustrator 27.1.1, SVG Export Plug-In . SVG Version: 6.00 Build 0)  -->
<svg version="1.1" id="Layer_1" xmlns="http://www.w3.org/2000/svg" xmlns:xlink="http://www.w3.org/1999/xlink" x="0px" y="0px"
	 viewBox="0 0 600 600" style="enable-background:new 0 0 600 600;" xml:space="preserve">
<style type="text/css">
	.st0{fill:#ED6523;}
	.st1{fill:#FFFFFF;}
	.st2{fill:#CC5427;}
	.st3{fill:#F8ABAA;}
	.st4{fill:#BA4726;}
	.st5{fill:#4D3830;}
	.st6{fill:#61463D;}
	.st7{fill:#D3BE95;}
	.st8{fill:#F5832D;}
</style>
<g>
	<g>
		<path class="st0" d="M357.81,400.46c0,0,63.15-13.89,110.52,1.9c47.37,15.79,107.99,74.52,106.1,80.84
			c-1.9,6.32-61.26,24-109.89,15.79c-48.63-8.21-106.1-56.21-106.1-56.21L357.81,400.46z"/>
		<rect x="377.92" y="443.79" class="st1" width="0" height="0"/>
		<path class="st2" d="M77.47,249.37c-4.24-8.28,5.63-12.97,11.21-8.27c-3.25-5.14,1.53-7.17,5.95-5.9
			c3.66,1.05,7.71,4.42,10.71,6.74c13.21,10.23,27.74,21.13,43.5,27.13c16.46,6.26,41,12.05,57.44,5.05l25.88,69.34
			c-0.79,3.33-27.69-0.37-32.1-1.21c-16.89-3.21-35.22-11.14-50.06-19.53c-34.65-19.61-55.74-38.97-72.55-58.19
			C71.07,257.22,69.58,246.91,77.47,249.37z"/>
		<path class="st0" d="M367.91,377.86c-0.63-74.34-8.21-94.23-17.68-149.18l-155.36,3.1c0,0-34,80.44-38.25,144.26
			c-3.28,49.18-2.73,94.59,22.68,184.72c5.51,19.54,25.41,33.08,23.93,15.49c3.66,3.93,10.91,7.22,14.95,4.01
			c1.99-1.59,1.76-4.45,1.47-7.31c16.75,11.88,6.75-22.26,5.21-31.83c-3.05-19,4.61-36.85,26.01-40.55
			c8.11-1.03,24.28,1.06,35.07,2.61c16.03,5.46,20,19.97,16.89,37.47c-1.69,9.55-12.26,43.51,4.68,31.91
			c-0.34,2.86-0.62,5.72,1.35,7.34c3.98,3.28,11.29,0.11,15.02-3.76c-1.77,17.56,18.35,4.35,24.19-15.09
			C374.97,471.33,368.21,413.51,367.91,377.86z"/>
		<g>
			<path class="st3" d="M91.96,254.78c4.4-4.67,10.57-2.83,13.35-1.27c3.86,2.18,7.04,5.62,7.88,10.07c0.83,4.42-2.45,8.96-6.84,9.6
				c-3.68,0.54-9.35-0.17-12.43-2.68C88.69,266.25,86.61,260.46,91.96,254.78z"/>
			<path class="st3" d="M94.4,247.12c1.3,1.36,3.22,1.64,4.29,0.62c1.06-1.02,0.87-2.95-0.44-4.31s-3.22-1.64-4.29-0.62
				C92.9,243.83,93.1,245.76,94.4,247.12z"/>
			<path class="st3" d="M84.19,249.91c1.3,1.36,3.22,1.64,4.29,0.62c1.06-1.02,0.87-2.95-0.44-4.31c-1.3-1.36-3.22-1.64-4.29-0.62
				C82.69,246.62,82.88,248.55,84.19,249.91z"/>
			<path class="st3" d="M80.65,259.43c1.3,1.36,3.22,1.64,4.29,0.62c1.06-1.02,0.87-2.95-0.44-4.31c-1.31-1.36-3.22-1.64-4.29-0.62
				C79.15,256.14,79.35,258.07,80.65,259.43z"/>
		</g>
		<path class="st4" d="M277.75,436.72c-7.69,5.23-13.57-3.99-9.59-10.1c-4.7,3.85-7.3-0.64-6.59-5.18c0.59-3.77,3.44-8.2,5.37-11.46
			c8.53-14.37,19.24-29.81,21.56-46.52c7.64-55.24-9.23-81.59,19.83-94.78c44.8-20.33,46.77,30.45,46.48,34.93
			c-1.1,17.15-6.71,36.33-13.21,52.08c-15.19,36.8-31.8,60.12-48.8,79.17C286.33,442.1,276.28,444.86,277.75,436.72z"/>
		<path class="st0" d="M276.34,55.32c-48.06-8.65-90,9.47-133.57,27.47s-101.36,18-103.26,34.1c-1.89,16.1,17.9,45.57,48.31,71.05
			c35.05,29.37,116.52,62.52,116.52,62.52l143.99,7.58c0,0,7.58-69.15,3.79-125.99C348.84,82.86,323.7,63.84,276.34,55.32z"/>
		<path class="st0" d="M210.02,62.58c0,0,7.58-52.42,13.89-51.79c6.32,0.63,38.52,51.16,38.52,51.16L210.02,62.58z"/>
		<path class="st0" d="M352.12,132.05c0,0-14.68-111.73-20.93-110.63c-6.25,1.1-42.86,48.74-42.86,48.74L352.12,132.05z"/>
		<path class="st3" d="M222.02,56.26c0,0,3.68-24.3,5.05-24.63c2.8-0.66,16.42,21.47,16.42,21.47L222.02,56.26z"/>
		<path class="st3" d="M305.39,61.32l24.63,13.89c0,0,0.34-31.39-2.53-32.84C323.69,40.45,305.39,61.32,305.39,61.32z"/>
		<path class="st5" d="M50.24,147.21c0,0-15.79-22.74-13.89-29.68c1.89-6.95,6.95-13.89,21.47-13.26
			c14.53,0.63,19.58,5.68,18.31,13.89c-1.26,8.21-5.05,12-13.89,15.16C53.4,136.47,61.61,145.94,50.24,147.21z"/>
		<path class="st5" d="M303.07,110.52c-0.66,3.25-3.84,5.35-7.09,4.69c-3.25-0.66-5.35-3.84-4.69-7.09
			c0.66-3.25,3.84-5.35,7.09-4.69C301.63,104.09,303.73,107.26,303.07,110.52z"/>
		<path class="st5" d="M302.64,85.44c2.85,1.13,15.17,6.33,12.47,10.83c-0.81,1.04-2.02,1.11-11.41-4.31
			C296.55,87.82,299.68,84.27,302.64,85.44z"/>
		<path class="st5" d="M210.86,83.36c-0.66,3.25-3.84,5.35-7.09,4.69c-3.25-0.66-5.35-3.84-4.69-7.09c0.66-3.25,3.84-5.35,7.09-4.69
			C209.43,76.93,211.52,80.11,210.86,83.36z"/>
		<path class="st5" d="M220.88,66.18c-2.99-0.7-16.06-3.47-16.43,1.76c0.07,1.32,1.02,2.06,11.83,2.98
			C224.51,71.62,223.97,66.91,220.88,66.18z"/>
		<path class="st6" d="M59.4,112.16c-0.28-4.57-9.11-6.95-10.89-2.84v-0.47c-5.05,1.65-10.64,4.16-9,10.89
			c0.45,1.85,1.68,4.62,4.26,4.29c2.28-0.3,2.17-3.59,3.91-5.11C51.18,115.83,59.84,119.34,59.4,112.16z"/>
		<g>
			<path class="st5" d="M140.58,209.44c-16.52,0-27.57-5.82-28.08-6.09c-0.92-0.49-1.27-1.64-0.77-2.57
				c0.49-0.92,1.64-1.27,2.56-0.77l0,0c0.13,0.07,12.99,6.8,31.18,5.46c30.62-2.25,38.54-23.63,38.61-23.85
				c0.35-0.99,1.43-1.5,2.42-1.15c0.99,0.35,1.5,1.43,1.15,2.42c-0.35,0.98-8.85,23.93-41.91,26.36
				C143.97,209.38,142.24,209.44,140.58,209.44z"/>
		</g>
		<path class="st7" d="M276.24,242.67c-6.17,0.06-12.88,3.48-18.84,4.34c-7.16,1.03-14.02,0.87-21.49,1.25
			c-7.08,0.36-13.31,0.17-20.21-0.6c-4.62-0.51-20.21-3.19-20.21-3.19c-6.22,4.61-7.3,17.71-9.39,24.55
			c0.91-0.79,2.75-1.36,3.76-2.21c0.27,7.22-3.09,15.23-3.8,22.64c-0.75,7.85-1.77,17.2,0.09,24.92c1.85-2.37,3.81-4.86,6.06-6.68
			c0.82,11.87,2.33,33.68,10.69,42.81c3.37-3.83,4.06-5.79,7.12-9.74c3.08,6.22,6.93,15.45,10.48,20.49
			c2.72-2.66,12.26-18.59,14.03-20.19c1.4-1.26,5.31,12.54,5.31,12.54s17.91-28.14,18.77-34.39c2.27,3.59,3.92,7.89,5.89,11.73
			c6.73-13.53,9.51-31.16,9.27-46.5c1.52,3.51,3.39,6.93,5.08,10.32C284.24,278.37,278.54,258.41,276.24,242.67z"/>
		<path class="st7" d="M523.64,433.52c-5.06,0.77-11.43,2.09-14.18,4.64c2.85,4.56,7.74,8.31,10.39,13.15
			c-4.87,4.32-11.3,7.73-14.84,13.15c3.92,0.69,11.36,2.5,8.81,6.9c-1.99,3.42-9.96,3.79-12.56,7.72c3.58,3.31,9.08,4.21,11.84,8.07
			c-6.54,2.82-12.3,5.47-17.98,9.76c1.16,1.45,2.12,2.61,3.44,4.09c38.76-1.2,75.05-12.6,76.52-17.5
			C576.24,479.56,552.8,455.14,523.64,433.52z"/>
	</g>
	<g>
		<g>
			<path class="st8" d="M171.27,346.31c-0.13,9.17-2.37,18.15-2.48,27.33c-0.03,2.67,4.11,2.67,4.14,0
				c0.12-9.18,2.35-18.16,2.48-27.33C175.45,343.63,171.31,343.64,171.27,346.31L171.27,346.31z"/>
		</g>
		<g>
			<path class="st8" d="M186.18,362.45c0.07,9.13,1.18,18.2,1.24,27.33c0.02,2.67,4.16,2.67,4.14,0c-0.07-9.13-1.18-18.2-1.24-27.33
				C190.3,359.79,186.16,359.78,186.18,362.45L186.18,362.45z"/>
		</g>
		<g>
			<path class="st8" d="M177.48,400.97c0,7.68,0.14,15.31,1.32,22.91c0.41,2.63,4.4,1.51,3.99-1.1c-1.12-7.23-1.17-14.52-1.17-21.81
				C181.62,398.3,177.48,398.3,177.48,400.97L177.48,400.97z"/>
		</g>
		<g>
			<path class="st8" d="M166.3,427.05c0.14,8.63,2.51,16.91,3.8,25.4c0.4,2.63,4.39,1.51,3.99-1.1c-1.23-8.12-3.52-16.04-3.65-24.3
				C170.4,424.39,166.26,424.38,166.3,427.05L166.3,427.05z"/>
		</g>
		<g>
			<path class="st8" d="M172.59,495.93c3.63,9.83,6.31,19.98,9.94,29.81c0.92,2.48,4.92,1.41,3.99-1.1
				c-3.63-9.83-6.31-19.98-9.94-29.81C175.67,492.35,171.66,493.42,172.59,495.93L172.59,495.93z"/>
		</g>
		<g>
			<path class="st8" d="M199.43,513.6c2.67,0,2.67-4.14,0-4.14C196.76,509.46,196.76,513.6,199.43,513.6L199.43,513.6z"/>
		</g>
		<g>
			<path class="st8" d="M197.64,512.57c2.15,4.31,4.42,8.61,6,13.17c0.87,2.51,4.87,1.43,3.99-1.1c-1.7-4.9-4.11-9.53-6.42-14.16
				C200.02,508.1,196.45,510.19,197.64,512.57L197.64,512.57z"/>
		</g>
		<g>
			<path class="st8" d="M187.01,463.91c2.67,0,2.67-4.14,0-4.14S184.34,463.91,187.01,463.91L187.01,463.91z"/>
		</g>
		<g>
			<path class="st8" d="M185.01,463.63c1.32,5.37,2.41,10.78,3.73,16.15c0.64,2.59,4.63,1.49,3.99-1.1
				c-1.32-5.37-2.41-10.78-3.73-16.15C188.37,459.94,184.37,461.04,185.01,463.63L185.01,463.63z"/>
		</g>
		<g>
			<path class="st8" d="M204.81,408.42c1.23,10.31,1.24,20.69,1.24,31.06c0,2.67,4.14,2.67,4.14,0c0-10.37-0.01-20.74-1.24-31.06
				C208.64,405.8,204.5,405.77,204.81,408.42L204.81,408.42z"/>
		</g>
		<g>
			<path class="st8" d="M237.11,377.36c0,5.61,0.03,11.21,1.32,16.7c0.61,2.6,4.6,1.5,3.99-1.1c-1.2-5.13-1.17-10.36-1.17-15.6
				C241.25,374.69,237.11,374.69,237.11,377.36L237.11,377.36z"/>
		</g>
		<g>
			<path class="st8" d="M237.11,423.33c0,9.34,0.08,18.75-1.17,28.02c-0.35,2.61,3.64,3.74,3.99,1.1c1.3-9.66,1.32-19.39,1.32-29.12
				C241.26,420.66,237.11,420.66,237.11,423.33L237.11,423.33z"/>
		</g>
		<g>
			<path class="st8" d="M225.52,458.94c2.67,0,2.67-4.14,0-4.14C222.85,454.8,222.85,458.94,225.52,458.94L225.52,458.94z"/>
		</g>
		<g>
			<path class="st8" d="M223.45,459.35c0,7.28,0.19,14.47,1.32,21.67c0.41,2.63,4.4,1.51,3.99-1.1c-1.07-6.83-1.17-13.67-1.17-20.57
				C227.59,456.68,223.45,456.68,223.45,459.35L223.45,459.35z"/>
		</g>
		<g>
			<path class="st8" d="M255.75,473.02c0,7.45,0,14.91,0,22.36c0,2.67,4.14,2.67,4.14,0c0-7.45,0-14.91,0-22.36
				C259.89,470.35,255.75,470.35,255.75,473.02L255.75,473.02z"/>
		</g>
		<g>
			<path class="st8" d="M304.2,463.08c0,7.04,0,14.08,0,21.12c0,2.67,4.14,2.67,4.14,0c0-7.04,0-14.08,0-21.12
				C308.34,460.41,304.2,460.41,304.2,463.08L304.2,463.08z"/>
		</g>
		<g>
			<path class="st8" d="M321.66,411.45c2.45,7.88,2.41,16.12,2.41,24.29c0,2.67,4.14,2.67,4.14,0c0-8.53,0-17.17-2.56-25.4
				C324.87,407.81,320.87,408.9,321.66,411.45L321.66,411.45z"/>
		</g>
		<g>
			<path class="st8" d="M340.3,370.46c2.37,8.22,4.92,16.37,6.21,24.85c0.4,2.63,4.39,1.51,3.99-1.1
				c-1.29-8.48-3.84-16.62-6.21-24.85C343.55,366.8,339.56,367.89,340.3,370.46L340.3,370.46z"/>
		</g>
		<g>
			<path class="st8" d="M350.16,455.63c0,7.3-0.05,14.58-1.17,21.81c-0.41,2.61,3.58,3.73,3.99,1.1c1.18-7.61,1.31-15.23,1.32-22.91
				C354.3,452.96,350.16,452.96,350.16,455.63L350.16,455.63z"/>
		</g>
		<g>
			<path class="st8" d="M329.04,484.2c0,8.72-0.08,17.43-1.24,26.09c-0.35,2.64,3.79,2.61,4.14,0c1.16-8.66,1.24-17.36,1.24-26.09
				C333.18,481.53,329.04,481.53,329.04,484.2L329.04,484.2z"/>
		</g>
		<g>
			<path class="st8" d="M325.32,538.86c-0.08,7.07-1.13,13.95-3.65,20.57c-0.95,2.5,3.05,3.57,3.99,1.1
				c2.65-6.94,3.72-14.26,3.8-21.67C329.49,536.19,325.35,536.19,325.32,538.86L325.32,538.86z"/>
		</g>
		<g>
			<path class="st8" d="M349.75,521.05c2.67,0,2.67-4.14,0-4.14S347.08,521.05,349.75,521.05L349.75,521.05z"/>
		</g>
		<g>
			<path class="st8" d="M346.51,520.92c-2.25,5.73-3.96,11.66-6.21,17.39c-0.98,2.49,3.03,3.56,3.99,1.1
				c2.25-5.73,3.96-11.66,6.21-17.39C351.48,519.53,347.47,518.46,346.51,520.92L346.51,520.92z"/>
		</g>
		<g>
			<path class="st8" d="M309.17,525.19c0,4.84-0.07,9.62-1.17,14.36c-0.6,2.6,3.39,3.7,3.99,1.1c1.18-5.1,1.31-10.25,1.32-15.46
				C313.31,522.52,309.17,522.52,309.17,525.19L309.17,525.19z"/>
		</g>
		<g>
			<path class="st8" d="M186.25,545.62c2.63,6.39,6.04,12.33,10.15,17.89c1.57,2.12,5.16,0.06,3.58-2.09
				c-3.87-5.24-7.24-10.86-9.73-16.9C189.24,542.09,185.24,543.15,186.25,545.62L186.25,545.62z"/>
		</g>
		<g>
			<path class="st8" d="M209.78,548.8c0.07,4.91,1.34,9.34,4.01,13.47c1.44,2.23,5.03,0.16,3.58-2.09
				c-2.29-3.54-3.38-7.17-3.44-11.38C213.88,546.13,209.74,546.13,209.78,548.8L209.78,548.8z"/>
		</g>
		<g>
			<path class="st8" d="M373.9,410.42c6.83-1.07,13.67-1.17,20.57-1.17c2.67,0,2.67-4.14,0-4.14c-7.28,0-14.47,0.19-21.67,1.32
				C370.17,406.84,371.29,410.83,373.9,410.42L373.9,410.42z"/>
		</g>
		<g>
			<path class="st8" d="M380.81,422.91c6.64,0.09,13.12,1.28,19.33,3.65c2.5,0.95,3.57-3.05,1.1-3.99
				c-6.53-2.49-13.44-3.71-20.43-3.8C378.13,418.74,378.14,422.88,380.81,422.91L380.81,422.91z"/>
		</g>
		<g>
			<path class="st8" d="M384.31,450.88c6.7,7.83,15.15,13.82,24.02,18.96c2.32,1.34,4.4-2.24,2.09-3.58
				c-8.59-4.97-16.69-10.73-23.18-18.31C385.5,445.92,382.58,448.86,384.31,450.88L384.31,450.88z"/>
		</g>
		<g>
			<path class="st8" d="M413.8,458.87c5.36,1.34,10.73,2.63,16.15,3.73c2.61,0.53,3.72-3.46,1.1-3.99
				c-5.42-1.1-10.79-2.39-16.15-3.73C412.31,454.22,411.21,458.22,413.8,458.87L413.8,458.87z"/>
		</g>
		<g>
			<path class="st8" d="M416.83,432.85c5.22,0.08,10.39,1.19,15.1,3.44c2.4,1.14,4.5-2.43,2.09-3.58
				c-5.39-2.57-11.22-3.92-17.19-4.01C414.16,428.67,414.16,432.81,416.83,432.85L416.83,432.85z"/>
		</g>
		<g>
			<path class="st8" d="M421.25,406.69c8.71,2.42,17.59,3.73,26.64,3.8c2.67,0.02,2.67-4.12,0-4.14
				c-8.69-0.07-17.17-1.33-25.54-3.65C419.77,401.98,418.68,405.98,421.25,406.69L421.25,406.69z"/>
		</g>
		<g>
			<path class="st8" d="M461.75,421.39c6.21,3.73,12.42,7.45,18.63,11.18c2.3,1.38,4.38-2.2,2.09-3.58
				c-6.21-3.73-12.42-7.45-18.63-11.18C461.55,416.43,459.46,420.02,461.75,421.39L461.75,421.39z"/>
		</g>
		<g>
			<path class="st8" d="M448.58,443.96c4.54,1.14,9.17,2.23,13.17,4.76c2.26,1.43,4.34-2.15,2.09-3.58
				c-4.3-2.72-9.28-3.95-14.16-5.18C447.09,439.32,445.99,443.31,448.58,443.96L448.58,443.96z"/>
		</g>
		<g>
			<path class="st8" d="M451.62,481.3c8.26,0.14,16.18,2.42,24.3,3.65c2.61,0.4,3.73-3.59,1.1-3.99c-8.49-1.29-16.76-3.66-25.4-3.8
				C448.94,477.12,448.95,481.26,451.62,481.3L451.62,481.3z"/>
		</g>
		<g>
			<path class="st8" d="M476.46,470.12c4.14,0,8.28,0,12.42,0c2.67,0,2.67-4.14,0-4.14c-4.14,0-8.28,0-12.42,0
				C473.79,465.98,473.79,470.12,476.46,470.12L476.46,470.12z"/>
		</g>
		<g>
			<path class="st8" d="M492.39,434.73c2.48,2.48,4.97,4.97,7.45,7.45c1.89,1.89,4.82-1.04,2.93-2.93
				c-2.48-2.48-4.97-4.97-7.45-7.45C493.43,429.91,490.5,432.84,492.39,434.73L492.39,434.73z"/>
		</g>
		<g>
			<path class="st8" d="M285.64,243.75c1.45,4.5,2.28,9.17,3.73,13.67c0.81,2.53,4.81,1.45,3.99-1.1c-1.45-4.5-2.28-9.17-3.73-13.67
				C288.82,240.11,284.82,241.2,285.64,243.75L285.64,243.75z"/>
		</g>
		<g>
			<path class="st8" d="M302,236.79c2.36,4.95,3.45,10.36,4.76,15.66c0.64,2.59,4.63,1.49,3.99-1.1c-1.4-5.67-2.65-11.35-5.18-16.64
				C304.42,232.29,300.85,234.39,302,236.79L302,236.79z"/>
		</g>
		<g>
			<path class="st8" d="M326.56,219.59c1.36,11.22,5.02,21.88,7.53,32.85c0.59,2.6,4.59,1.5,3.99-1.1
				c-2.42-10.59-6.06-20.92-7.38-31.75C330.38,216.98,326.24,216.94,326.56,219.59L326.56,219.59z"/>
		</g>
	</g>
</g>
</svg>
