<?xml version="1.0" encoding="UTF-8"?>
<svg id="Graphic_Elements" data-name="Graphic Elements" xmlns="http://www.w3.org/2000/svg" viewBox="0 0 1098.03 787.33">
  <defs>
    <style>
      .cls-1 {
        fill: #dce086;
      }

      .cls-2 {
        fill: #fff;
      }

      .cls-3 {
        fill: #d7f5fa;
      }
    </style>
  </defs>
  <path class="cls-1" d="m948.98,387.29c-9.88.84-19.4,2.75-28.51,5.52-39.74-77.66-123.55-127.66-215.85-119.85-31.23,2.64-60.36,11.68-86.3,25.65-31.1-110.97-137.42-187.85-256.49-177.78-134.83,11.41-234.89,129.96-223.48,264.79.31,3.65.73,7.26,1.2,10.86-2.97.07-5.93.05-8.93.3C52.12,403.42-6.12,472.43.52,550.92c6.64,78.49,75.65,136.73,154.14,130.09,7.19-.61,14.15-1.91,20.97-3.52,13.75,67.36,75.98,115.28,146.16,109.34,47.89-4.05,87.89-32.23,109.22-71.52,20.27,12.01,44.28,18.13,69.55,15.99,40.02-3.39,73.61-26.51,92.09-58.96,41.6,30.43,93.91,46.61,149.31,41.93,58.71-4.97,110.09-32.46,146.46-73.2,24.21,14.98,53.19,22.73,83.75,20.15,75.64-6.4,131.78-72.91,125.38-148.55-6.4-75.64-72.91-131.78-148.55-125.38Z"/>
  <path class="cls-3" d="m821.95,262.48c-9.4-.93-18.59-.35-27.37,1.49-.38-58.69-45.03-108.8-104.73-114.7-16.14-1.59-31.83.22-46.38,4.82.42-2.63.92-5.23,1.19-7.92,7.22-73.14-46.22-138.3-119.36-145.52-59.04-5.83-112.82,27.89-135.19,79.56-9.53-4.76-20.02-7.97-31.24-9.08-38.16-3.77-73.01,16.98-89.17,49.37-12.57-9.26-27.66-15.45-44.34-17.09-49.38-4.88-93.36,31.2-98.23,80.58-1.18,11.9.08,23.47,3.28,34.28-47.31,12.28-84.25,52.79-89.33,104.26-6.51,65.96,41.67,124.7,107.63,131.22,36.28,3.58,70.33-9.45,94.75-32.83,26.05,27.04,61.45,45.33,101.74,49.31,19.61,1.94,38.76.32,56.8-4.31,23.6,26.7,56.94,44.91,95.2,48.69,52.72,5.21,101.67-18.26,131.37-57.69,12.92,10.04,28.68,16.74,46.17,18.47,37.86,3.74,72.48-16.65,88.8-48.6,11.82,7.85,25.66,13.03,40.77,14.52,49.38,4.88,93.36-31.2,98.23-80.58,4.88-49.38-31.2-93.36-80.58-98.23Z"/>
  <path class="cls-2" d="m407.04,125.96c6.13-2.99,11.01-8.2,15.76-12.85,5.12-5.02,10.28-10.23,16.41-14.13,7.37-4.69,16.36-6.86,24.86-8.76,34.52-7.74,75.44-9.74,105.19,11.58,14.19,10.17,22.58,25.15,31.37,39.55,4.49,7.37,9.13,14.75,14.88,21.28,2.1,2.38,4.28,4.67,6.75,6.6-.36-60.85-50.41-110.98-114.14-113.05-50.83-1.65-95.38,27.79-113.97,70.56,4.16,1.39,8.42,1.39,12.9-.79Z"/>
  <path class="cls-2" d="m165.71,201.03c2.88-3.09,4.54-7.24,6.25-11.03,1.84-4.09,3.67-8.3,6.34-11.93,3.22-4.37,7.93-7.57,12.42-10.5,18.23-11.94,41.43-21.79,63.37-15.32,10.46,3.08,18.64,10.28,26.92,17.04,4.23,3.46,8.56,6.9,13.33,9.59,1.74.98,3.51,1.89,5.37,2.53-13.74-36.35-53.81-55.77-91.09-43.53-29.74,9.77-48.94,36.82-50.18,66.35,2.71-.05,5.18-.95,7.28-3.2Z"/>
  <path class="cls-2" d="m1019.98,446.43c.6,5.92,3.57,11.65,6.09,17.07,2.72,5.85,5.6,11.8,7,18.04,1.69,7.52.61,15.42-.54,22.83-4.65,30.12-16.49,63.27-45.16,79.25-13.68,7.62-29.68,8.93-45.29,10.76-7.99.94-16.04,1.98-23.7,4.21-2.8.81-5.54,1.73-8.06,2.99,53.76,21.4,114.58-.4,137.58-50.18,18.34-39.7,7.2-85.51-24.33-115.49-2.61,2.8-4.03,6.18-3.59,10.5Z"/>
  <path class="cls-2" d="m125,623.89c-3.92-3.65-9.19-5.77-14.01-7.94-5.2-2.34-10.54-4.66-15.16-8.06-5.55-4.09-9.61-10.08-13.34-15.78-15.17-23.16-27.68-52.63-19.46-80.49,3.92-13.29,13.06-23.68,21.65-34.2,4.39-5.38,8.76-10.87,12.18-16.93,1.25-2.21,2.4-4.46,3.21-6.82-46.18,17.45-70.85,68.35-55.29,115.72,12.41,37.78,46.77,62.17,84.29,63.74-.06-3.44-1.21-6.58-4.07-9.24Z"/>
  <path class="cls-2" d="m619.71,262.03c2.88-3.09,4.54-7.24,6.25-11.03,1.84-4.09,3.67-8.3,6.34-11.93,3.22-4.37,7.93-7.57,12.42-10.5,18.23-11.94,41.43-21.79,63.37-15.32,10.46,3.08,18.64,10.28,26.92,17.04,4.23,3.46,8.56,6.9,13.33,9.59,1.74.98,3.51,1.89,5.37,2.53-13.74-36.35-53.81-55.77-91.09-43.53-29.74,9.77-48.94,36.82-50.18,66.35,2.71-.05,5.18-.95,7.28-3.2Z"/>
  <path class="cls-2" d="m775.05,613.24c-2.88,3.09-4.54,7.24-6.25,11.03-1.84,4.09-3.67,8.3-6.34,11.93-3.22,4.37-7.93,7.57-12.42,10.5-18.23,11.94-41.43,21.79-63.37,15.32-10.46-3.08-18.64-10.28-26.92-17.04-4.23-3.46-8.56-6.9-13.33-9.59-1.74-.98-3.51-1.89-5.37-2.53,13.74,36.35,53.81,55.77,91.09,43.53,29.74-9.77,48.94-36.82,50.18-66.35-2.71.05-5.18.95-7.28,3.2Z"/>
  <path class="cls-2" d="m370.05,691.24c-2.88,3.09-4.54,7.24-6.25,11.03-1.84,4.09-3.67,8.3-6.34,11.93-3.22,4.37-7.93,7.57-12.42,10.5-18.23,11.94-41.43,21.79-63.37,15.32-10.46-3.08-18.64-10.28-26.92-17.04-4.23-3.46-8.56-6.9-13.33-9.59-1.74-.98-3.51-1.89-5.37-2.53,13.74,36.35,53.81,55.77,91.09,43.53,29.74-9.77,48.94-36.82,50.18-66.35-2.71.05-5.18.95-7.28,3.2Z"/>
</svg>