<?xml version="1.0" encoding="utf-8"?>
<!-- Generator: Adobe Illustrator 27.1.1, SVG Export Plug-In . SVG Version: 6.00 Build 0)  -->
<svg version="1.1" id="Graphic_Elements" xmlns="http://www.w3.org/2000/svg" xmlns:xlink="http://www.w3.org/1999/xlink" x="0px"
	 y="0px" viewBox="0 0 1098 787.3" style="enable-background:new 0 0 1098 787.3;" xml:space="preserve">
<style type="text/css">
	.st0{fill:#DCE086;}
	.st1{fill:#D7F5FA;}
	.st2{fill:#FFFFFF;}
	.st3{fill:#32355D;}
</style>
<path class="st0" d="M949,387.3c-9.9,0.8-19.4,2.8-28.5,5.5C880.7,315.1,796.9,265.1,704.6,273c-31.2,2.6-60.4,11.7-86.3,25.6
	c-31.1-111-137.4-187.9-256.5-177.8c-134.8,11.4-234.9,130-223.5,264.8c0.3,3.6,0.7,7.3,1.2,10.9c-3,0.1-5.9,0-8.9,0.3
	C52.1,403.4-6.1,472.4,0.5,550.9S76.2,687.6,154.7,681c7.2-0.6,14.1-1.9,21-3.5c13.8,67.4,76,115.3,146.2,109.3
	c47.9-4,87.9-32.2,109.2-71.5c20.3,12,44.3,18.1,69.5,16c40-3.4,73.6-26.5,92.1-59c41.6,30.4,93.9,46.6,149.3,41.9
	c58.7-5,110.1-32.5,146.5-73.2c24.2,15,53.2,22.7,83.8,20.2c75.6-6.4,131.8-72.9,125.4-148.5S1024.6,380.9,949,387.3L949,387.3z"/>
<path class="st1" d="M822,262.5c-9.4-0.9-18.6-0.4-27.4,1.5c-0.4-58.7-45-108.8-104.7-114.7c-16.1-1.6-31.8,0.2-46.4,4.8
	c0.4-2.6,0.9-5.2,1.2-7.9C651.9,73,598.4,7.9,525.3,0.7c-59-5.8-112.8,27.9-135.2,79.6c-9.5-4.8-20-8-31.2-9.1
	c-38.2-3.8-73,17-89.2,49.4c-12.6-9.3-27.7-15.4-44.3-17.1C176,98.5,132,134.6,127.1,184c-1.2,11.9,0.1,23.5,3.3,34.3
	c-47.3,12.3-84.2,52.8-89.3,104.3c-6.5,66,41.7,124.7,107.6,131.2c36.3,3.6,70.3-9.5,94.8-32.8c26,27,61.5,45.3,101.7,49.3
	c19.6,1.9,38.8,0.3,56.8-4.3c23.6,26.7,56.9,44.9,95.2,48.7c52.7,5.2,101.7-18.3,131.4-57.7c12.9,10,28.7,16.7,46.2,18.5
	c37.9,3.7,72.5-16.6,88.8-48.6c11.8,7.9,25.7,13,40.8,14.5c49.4,4.9,93.4-31.2,98.2-80.6C907.4,311.3,871.3,267.4,822,262.5
	L822,262.5z"/>
<path class="st2" d="M407,126c6.1-3,11-8.2,15.8-12.8c5.1-5,10.3-10.2,16.4-14.1c7.4-4.7,16.4-6.9,24.9-8.8
	c34.5-7.7,75.4-9.7,105.2,11.6c14.2,10.2,22.6,25.2,31.4,39.6c4.5,7.4,9.1,14.8,14.9,21.3c2.1,2.4,4.3,4.7,6.8,6.6
	c-0.4-60.8-50.4-111-114.1-113.1c-50.8-1.7-95.4,27.8-114,70.6C398.3,128.1,402.6,128.1,407,126L407,126z"/>
<path class="st2" d="M165.7,201c2.9-3.1,4.5-7.2,6.2-11c1.8-4.1,3.7-8.3,6.3-11.9c3.2-4.4,7.9-7.6,12.4-10.5
	c18.2-11.9,41.4-21.8,63.4-15.3c10.5,3.1,18.6,10.3,26.9,17c4.2,3.5,8.6,6.9,13.3,9.6c1.7,1,3.5,1.9,5.4,2.5
	c-13.7-36.4-53.8-55.8-91.1-43.5c-29.7,9.8-48.9,36.8-50.2,66.4C161.2,204.2,163.6,203.3,165.7,201L165.7,201z"/>
<path class="st2" d="M1020,446.4c0.6,5.9,3.6,11.6,6.1,17.1c2.7,5.9,5.6,11.8,7,18c1.7,7.5,0.6,15.4-0.5,22.8
	c-4.7,30.1-16.5,63.3-45.2,79.2c-13.7,7.6-29.7,8.9-45.3,10.8c-8,0.9-16,2-23.7,4.2c-2.8,0.8-5.5,1.7-8.1,3
	c53.8,21.4,114.6-0.4,137.6-50.2c18.3-39.7,7.2-85.5-24.3-115.5C1021,438.7,1019.5,442.1,1020,446.4L1020,446.4z"/>
<path class="st2" d="M125,623.9c-3.9-3.7-9.2-5.8-14-7.9c-5.2-2.3-10.5-4.7-15.2-8.1c-5.6-4.1-9.6-10.1-13.3-15.8
	C67.3,569,54.8,539.5,63,511.6c3.9-13.3,13.1-23.7,21.7-34.2c4.4-5.4,8.8-10.9,12.2-16.9c1.2-2.2,2.4-4.5,3.2-6.8
	C53.9,471.1,29.2,522,44.8,569.4c12.4,37.8,46.8,62.2,84.3,63.7C129,629.7,127.9,626.5,125,623.9z"/>
<path class="st2" d="M619.7,262c2.9-3.1,4.5-7.2,6.2-11c1.8-4.1,3.7-8.3,6.3-11.9c3.2-4.4,7.9-7.6,12.4-10.5
	c18.2-11.9,41.4-21.8,63.4-15.3c10.5,3.1,18.6,10.3,26.9,17c4.2,3.5,8.6,6.9,13.3,9.6c1.7,1,3.5,1.9,5.4,2.5
	c-13.7-36.4-53.8-55.8-91.1-43.5c-29.7,9.8-48.9,36.8-50.2,66.4C615.2,265.2,617.6,264.3,619.7,262L619.7,262z"/>
<path class="st2" d="M775,613.2c-2.9,3.1-4.5,7.2-6.2,11c-1.8,4.1-3.7,8.3-6.3,11.9c-3.2,4.4-7.9,7.6-12.4,10.5
	c-18.2,11.9-41.4,21.8-63.4,15.3c-10.5-3.1-18.6-10.3-26.9-17c-4.2-3.5-8.6-6.9-13.3-9.6c-1.7-1-3.5-1.9-5.4-2.5
	c13.7,36.3,53.8,55.8,91.1,43.5c29.7-9.8,48.9-36.8,50.2-66.3C779.6,610.1,777.1,611,775,613.2L775,613.2z"/>
<path class="st2" d="M370,691.2c-2.9,3.1-4.5,7.2-6.2,11c-1.8,4.1-3.7,8.3-6.3,11.9c-3.2,4.4-7.9,7.6-12.4,10.5
	c-18.2,11.9-41.4,21.8-63.4,15.3c-10.5-3.1-18.6-10.3-26.9-17c-4.2-3.5-8.6-6.9-13.3-9.6c-1.7-1-3.5-1.9-5.4-2.5
	c13.7,36.3,53.8,55.8,91.1,43.5c29.7-9.8,48.9-36.8,50.2-66.3C374.6,688.1,372.1,689,370,691.2L370,691.2z"/>
<g>
	<path class="st3" d="M138.7,349.6c-2.6,4.4-6.2,7.7-10.8,9.9c-4.6,2.2-10,3.3-16.2,3.3c-2,0-4.6-0.1-7.5-0.4
		c-3-0.3-5.7-0.9-8.1-1.7c-3.2-1.2-4.8-3.3-4.8-6.2V310c0-1.2,0.3-2.2,1-2.8c0.7-0.7,1.6-1.2,2.7-1.6c2.5-0.8,5.1-1.3,8-1.6
		c2.9-0.2,5.5-0.4,7.8-0.4c6.4,0,12,1.1,16.7,3.2c4.7,2.1,8.4,5.4,11.1,9.7c2.7,4.3,4,9.8,4,16.5
		C142.5,339.6,141.2,345.2,138.7,349.6z M125.8,323c-1.4-2.7-3.3-4.7-5.8-6c-2.4-1.3-5.3-2-8.5-2c-1.1,0-2.2,0-3.2,0.1
		c-1,0.1-2.1,0.2-3.1,0.3v35.2c0.9,0.2,2,0.3,3.2,0.4c1.2,0.1,2.3,0.1,3.3,0.1c4.9,0,8.8-1.5,11.8-4.6c2.9-3,4.4-7.5,4.4-13.5
		C127.9,329.1,127.2,325.7,125.8,323z"/>
	<path class="st3" d="M166.6,344.5h-13.8v-31.9c0-2.4,0.7-4.2,2-5.5c1.4-1.3,3.2-2,5.5-2c1.3,0,2.5,0.1,3.7,0.3
		c1.1,0.2,2,0.3,2.6,0.5V344.5z M152.9,322h13.8v38.9c-0.6,0.1-1.4,0.3-2.6,0.5c-1.1,0.2-2.4,0.3-3.7,0.3c-2.3,0-4.1-0.7-5.5-2
		c-1.4-1.4-2-3.2-2-5.5V322z M160.4,316.2V305h30.7c0.4,0.6,0.8,1.3,1.1,2.2c0.3,0.9,0.4,2,0.4,3.1c0,2-0.4,3.5-1.3,4.4
		c-0.9,1-2.1,1.4-3.6,1.4H160.4z M160.4,338.2v-11.2h28.1c0.4,0.6,0.7,1.4,1,2.3c0.3,0.9,0.5,2,0.5,3.1c0,2-0.5,3.4-1.3,4.4
		c-0.9,0.9-2.1,1.4-3.6,1.4H160.4z M160.4,361.6v-11.3h31.2c0.4,0.6,0.7,1.3,1,2.3c0.3,1,0.5,2,0.5,3.2c0,2-0.5,3.4-1.3,4.4
		c-0.9,0.9-2.1,1.4-3.6,1.4H160.4z"/>
	<path class="st3" d="M246.4,312.7c0,1.4-0.4,2.7-1.1,3.7c-0.7,1.1-1.6,1.9-2.5,2.5c-1.5-1.1-3.3-2-5.3-2.8c-2-0.8-4.3-1.2-6.9-1.2
		c-3.3,0-6.1,0.7-8.6,2.1c-2.4,1.4-4.3,3.5-5.5,6.2c-1.3,2.7-1.9,6-1.9,10c0,6,1.5,10.5,4.5,13.6c3,3.1,7.1,4.6,12.3,4.6
		c2.7,0,5-0.4,6.9-1.1c1.9-0.7,3.7-1.6,5.3-2.5c0.9,0.7,1.7,1.6,2.3,2.7c0.6,1.1,0.9,2.3,0.9,3.8c0,1.2-0.3,2.4-1,3.4
		c-0.7,1.1-1.8,2-3.3,2.7c-1.2,0.6-2.9,1.2-5,1.8c-2.2,0.6-4.8,0.8-7.9,0.8c-5.5,0-10.4-1.1-14.9-3.2c-4.5-2.1-8-5.4-10.6-9.8
		c-2.6-4.4-3.9-10-3.9-16.8c0-6.4,1.3-11.9,3.9-16.3c2.6-4.4,6-7.8,10.4-10.1c4.3-2.3,9.1-3.4,14.4-3.4c3.7,0,6.8,0.4,9.5,1.3
		c2.7,0.8,4.7,2,6.1,3.3C245.7,309.4,246.4,310.9,246.4,312.7z M228.1,291.5c1.5-1.4,3.1-2.8,4.5-4.2c1.5-1.4,2.9-2.7,4.2-3.9
		c1.7,0,3.2,0.5,4.4,1.5c1.2,1,1.8,2.2,1.8,3.7c0,1.2-0.3,2.2-0.8,3.1c-0.6,0.9-1.6,1.9-3.1,3.1l-3.3,2.8c-1.6,1.2-2.9,2-4,2.5
		c-1.1,0.5-2.3,0.7-3.7,0.7c-1.6,0-3-0.3-4.2-1s-2.4-1.5-3.5-2.6l-7.7-7.3c0-2,0.5-3.5,1.4-4.6c1-1.1,2.3-1.7,4-1.7
		c1.1,0,2.2,0.3,3.1,0.9c1,0.6,2.2,1.7,3.8,3.4L228.1,291.5z"/>
	<path class="st3" d="M270.5,339.9h-14.1v-35.1c0.6-0.1,1.6-0.3,2.8-0.5c1.3-0.2,2.5-0.3,3.8-0.3c2.7,0,4.6,0.5,5.8,1.4
		c1.2,0.9,1.8,2.7,1.8,5.3V339.9z M256.4,322.1h14.1v39.2c-0.6,0.2-1.5,0.4-2.7,0.5c-1.2,0.2-2.5,0.2-3.8,0.2
		c-2.8,0-4.8-0.5-5.9-1.5c-1.1-1-1.7-2.7-1.7-5.2V322.1z"/>
	<path class="st3" d="M294.4,334.4h14.1v11c0,3.7-0.7,6.8-2.1,9.4c-1.4,2.6-3.5,4.6-6.1,5.9c-2.6,1.3-5.8,2-9.6,2
		c-3.3,0-6-0.6-8.2-1.7c-2.2-1.1-3.3-3-3.3-5.7c0-1.2,0.2-2.2,0.6-3.1c0.4-0.9,0.7-1.5,1.1-2c1.2,0.3,2.2,0.5,3.2,0.7
		c0.9,0.2,2,0.2,3.1,0.2c2.5,0,4.3-0.6,5.5-1.9c1.2-1.2,1.8-3.1,1.8-5.7V334.4z M308.5,340.5h-14.1v-35.6c0.6-0.1,1.6-0.3,2.8-0.5
		c1.3-0.2,2.5-0.3,3.7-0.3c2.7,0,4.6,0.5,5.8,1.4c1.2,0.9,1.8,2.7,1.8,5.3V340.5z"/>
	<path class="st3" d="M344.2,316.8h-0.6c-0.6,2-1.3,4.2-2.2,6.6c-0.8,2.4-1.7,4.9-2.6,7.6c-0.9,2.6-1.7,5.3-2.5,7.9l-1.7,8.4
		c-0.4,1.2-0.7,2.4-1.1,3.7c-0.3,1.3-0.7,2.6-1.1,3.8c-0.4,1.2-0.7,2.4-1,3.5c-0.3,1.1-0.6,2.2-0.9,3.2c-0.7,0.2-1.5,0.4-2.3,0.6
		c-0.9,0.2-1.9,0.3-3.1,0.3c-2.6,0-4.6-0.5-6-1.4c-1.4-0.9-2-2.3-2-4.1c0-0.7,0.1-1.5,0.3-2.3c0.2-0.8,0.5-1.7,0.8-2.8
		c0.6-2,1.3-4.6,2.4-7.7c1-3.1,2.1-6.5,3.3-10.1c1.2-3.6,2.4-7.2,3.7-10.7c1.3-3.5,2.4-6.8,3.5-9.8c1.1-3,2-5.3,2.7-7
		c0.9-0.6,2.2-1.1,4.1-1.5c1.9-0.5,3.8-0.7,5.6-0.7c2.7,0,5.1,0.4,7.2,1.2c2.1,0.8,3.4,2,4,3.7c1.2,3.3,2.5,7.1,3.9,11.4
		c1.4,4.3,2.8,8.8,4.2,13.5c1.4,4.7,2.8,9.3,4.1,13.7c1.3,4.4,2.5,8.4,3.5,11.9c-0.7,0.7-1.7,1.4-3,1.9c-1.3,0.5-2.9,0.8-4.6,0.8
		c-2.5,0-4.3-0.5-5.4-1.4c-1.1-0.9-1.9-2.3-2.4-4.2l-3-10.4l-1.6-7.9c-0.7-2.8-1.5-5.5-2.3-8.1c-0.8-2.6-1.6-5.1-2.2-7.4
		C345.4,320.6,344.8,318.6,344.2,316.8z M328.5,348.8l5.5-11h21.8l1.9,11H328.5z"/>
	<path class="st3" d="M411.8,339.9h-14.1v-35.1c0.6-0.1,1.6-0.3,2.8-0.5c1.3-0.2,2.5-0.3,3.8-0.3c2.7,0,4.6,0.5,5.8,1.4
		c1.2,0.9,1.8,2.7,1.8,5.3V339.9z M397.7,322.1h14.1v39.2c-0.6,0.2-1.5,0.4-2.7,0.5c-1.2,0.2-2.5,0.2-3.8,0.2
		c-2.8,0-4.8-0.5-5.9-1.5c-1.1-1-1.7-2.7-1.7-5.2V322.1z"/>
	<path class="st3" d="M474.6,333.6v19.3c0,1.7-0.3,3.1-1,4c-0.7,0.9-1.7,1.8-3.2,2.6c-1.7,0.9-4.1,1.8-7.3,2.5
		c-3.2,0.7-6.3,1.1-9.5,1.1c-6,0-11.3-1-16-3.1c-4.7-2.1-8.5-5.3-11.3-9.7c-2.8-4.4-4.1-10-4.1-16.9c0-6.6,1.4-12.1,4.2-16.5
		c2.8-4.4,6.6-7.8,11.3-10c4.7-2.3,10-3.4,15.8-3.4c3.8,0,7.2,0.4,10,1.2c2.8,0.8,5,1.9,6.5,3.3c1.5,1.4,2.3,3.1,2.3,4.9
		c0,1.4-0.4,2.6-1.1,3.7c-0.7,1.1-1.6,1.9-2.6,2.5c-1.6-1-3.5-1.9-5.9-2.8c-2.4-0.9-5.1-1.3-8.3-1.3c-3.4,0-6.5,0.7-9.2,2.2
		c-2.7,1.5-4.8,3.6-6.3,6.3c-1.5,2.8-2.2,6-2.2,9.8c0,4.1,0.7,7.5,2.2,10.2c1.5,2.7,3.5,4.8,6,6.1c2.6,1.3,5.5,2,8.8,2
		c1.5,0,3-0.2,4.2-0.5c1.3-0.3,2.2-0.6,2.9-0.9v-10.9h-10.9c-0.4-0.6-0.7-1.4-1-2.4c-0.3-1-0.5-2-0.5-3.1c0-1.9,0.4-3.3,1.3-4.2
		c0.9-0.9,2.1-1.3,3.6-1.3h15.6c1.7,0,3,0.5,4,1.4C474.1,330.5,474.6,331.9,474.6,333.6z"/>
	<path class="st3" d="M507.7,342.4h-21.4V310c0-1.2,0.3-2.1,1-2.8c0.7-0.7,1.6-1.2,2.7-1.6c2-0.7,4.4-1.3,7.2-1.6
		c2.8-0.3,5.6-0.5,8.6-0.5c8.4,0,14.7,1.8,18.9,5.3c4.2,3.5,6.3,8.3,6.3,14.3c0,3.7-1,7.1-3,10c-2,2.9-4.8,5.2-8.3,6.9
		C516.3,341.6,512.2,342.4,507.7,342.4z M486.3,337.1h14.1v24.2c-0.6,0.2-1.5,0.4-2.7,0.5c-1.2,0.2-2.5,0.2-3.8,0.2
		c-2.8,0-4.8-0.5-5.9-1.5c-1.1-1-1.7-2.7-1.7-5.2V337.1z M500.4,331.5h6c3.1,0,5.6-0.7,7.5-2.1c1.9-1.4,2.8-3.5,2.8-6.2
		c0-2.7-0.9-4.7-2.7-6.1c-1.8-1.4-4.6-2.1-8.3-2.1c-1.1,0-2,0-2.9,0.1c-0.9,0.1-1.7,0.2-2.5,0.4V331.5z M505.1,339.1l12.6-3
		c1.4,2,2.9,3.9,4.4,5.9c1.5,1.9,3,3.8,4.4,5.6c1.4,1.8,2.7,3.5,3.8,5c1.1,1.5,2,2.8,2.7,3.9c-0.6,1.9-1.5,3.3-3,4.3
		c-1.4,1-3,1.5-4.8,1.5c-2.3,0-4-0.5-5.3-1.5s-2.3-2.4-3.4-4L505.1,339.1z"/>
	<path class="st3" d="M565.9,316.8h-0.6c-0.6,2-1.3,4.2-2.2,6.6c-0.8,2.4-1.7,4.9-2.6,7.6c-0.9,2.6-1.7,5.3-2.5,7.9l-1.7,8.4
		c-0.4,1.2-0.7,2.4-1.1,3.7c-0.3,1.3-0.7,2.6-1.1,3.8c-0.4,1.2-0.7,2.4-1,3.5c-0.3,1.1-0.6,2.2-0.9,3.2c-0.7,0.2-1.5,0.4-2.3,0.6
		c-0.9,0.2-1.9,0.3-3.1,0.3c-2.6,0-4.6-0.5-6-1.4c-1.4-0.9-2-2.3-2-4.1c0-0.7,0.1-1.5,0.3-2.3c0.2-0.8,0.5-1.7,0.8-2.8
		c0.6-2,1.3-4.6,2.4-7.7c1-3.1,2.1-6.5,3.3-10.1c1.2-3.6,2.4-7.2,3.7-10.7c1.3-3.5,2.4-6.8,3.5-9.8c1.1-3,2-5.3,2.7-7
		c0.9-0.6,2.2-1.1,4.1-1.5c1.9-0.5,3.8-0.7,5.6-0.7c2.7,0,5.1,0.4,7.2,1.2c2.1,0.8,3.4,2,4,3.7c1.2,3.3,2.5,7.1,3.9,11.4
		c1.4,4.3,2.8,8.8,4.2,13.5c1.4,4.7,2.8,9.3,4.1,13.7c1.3,4.4,2.5,8.4,3.5,11.9c-0.7,0.7-1.7,1.4-3,1.9c-1.3,0.5-2.9,0.8-4.6,0.8
		c-2.5,0-4.3-0.5-5.4-1.4c-1.1-0.9-1.9-2.3-2.4-4.2l-3-10.4l-1.6-7.9c-0.7-2.8-1.5-5.5-2.3-8.1c-0.8-2.6-1.6-5.1-2.2-7.4
		C567.1,320.6,566.5,318.6,565.9,316.8z M550.2,348.8l5.5-11h21.8l1.9,11H550.2z"/>
	<path class="st3" d="M654.7,333.1c0,6.4-1.3,11.9-3.8,16.3c-2.5,4.4-6,7.8-10.3,10.1s-9.3,3.4-14.8,3.4c-5.5,0-10.4-1.1-14.8-3.4
		c-4.3-2.3-7.8-5.7-10.2-10.1c-2.5-4.4-3.7-9.9-3.7-16.3c0-6.4,1.3-11.9,3.8-16.3c2.5-4.4,6-7.8,10.3-10c4.3-2.3,9.2-3.4,14.6-3.4
		c5.5,0,10.4,1.1,14.7,3.4c4.4,2.3,7.8,5.6,10.4,10C653.5,321.2,654.7,326.7,654.7,333.1z M640.1,333.1c0-6-1.3-10.5-3.9-13.6
		c-2.6-3.1-6.1-4.6-10.5-4.6c-4.2,0-7.6,1.5-10.2,4.6c-2.6,3.1-3.9,7.6-3.9,13.6c0,6.1,1.3,10.6,3.9,13.7c2.6,3.1,6,4.6,10.4,4.6
		c4.3,0,7.8-1.5,10.4-4.6C638.9,343.8,640.1,339.2,640.1,333.1z"/>
	<path class="st3" d="M714.6,340.6v19.1c-0.8,0.7-1.9,1.3-3.4,1.8c-1.5,0.5-3.2,0.7-5.2,0.7c-2.1,0-4.1-0.3-5.9-1
		c-1.8-0.7-3.3-2.2-4.5-4.6l-11.3-21.4c-0.7-1.4-1.3-2.7-2-4.1c-0.7-1.4-1.3-2.7-1.9-4.1c-0.6-1.4-1.2-2.8-1.9-4.2l-13.6,3.1v-18.3
		c0.7-1.1,1.9-1.9,3.5-2.4c1.6-0.6,3.3-0.8,5.2-0.8c2,0,4,0.3,5.8,1c1.8,0.7,3.3,2.2,4.5,4.5l11.3,21.5c0.7,1.3,1.4,2.7,2,4
		c0.7,1.4,1.3,2.8,2,4.1c0.6,1.4,1.2,2.8,1.8,4.2L714.6,340.6z M665.1,321.1l12.8-0.2c0.2,2.7,0.4,5.3,0.6,7.9
		c0.1,2.6,0.2,5.1,0.2,7.5c0,2.4,0,4.8,0,7.1v17.9c-0.6,0.1-1.4,0.3-2.7,0.4c-1.2,0.2-2.4,0.2-3.7,0.2c-2.7,0-4.6-0.5-5.7-1.4
		c-1.1-0.9-1.6-2.6-1.6-5V321.1z M714.6,345l-12.9,0.1c-0.4-4.5-0.7-8.8-0.7-12.9c-0.1-4.1-0.1-8-0.1-11.7v-15.6
		c0.6-0.1,1.5-0.3,2.7-0.5c1.2-0.2,2.4-0.3,3.7-0.3c2.7,0,4.6,0.5,5.7,1.4c1.1,1,1.7,2.6,1.7,5V345z"/>
	<path class="st3" d="M741.9,339.9h-14.1v-35.1c0.6-0.1,1.6-0.3,2.8-0.5c1.3-0.2,2.5-0.3,3.8-0.3c2.7,0,4.6,0.5,5.8,1.4
		c1.2,0.9,1.8,2.7,1.8,5.3V339.9z M727.7,322.1h14.1v39.2c-0.6,0.2-1.5,0.4-2.7,0.5c-1.2,0.2-2.5,0.2-3.8,0.2
		c-2.8,0-4.8-0.5-5.9-1.5c-1.1-1-1.7-2.7-1.7-5.2V322.1z"/>
	<path class="st3" d="M798.7,312.7c0,1.4-0.4,2.7-1.1,3.7c-0.7,1.1-1.6,1.9-2.5,2.5c-1.6-1.1-3.3-2-5.3-2.8c-2-0.8-4.3-1.2-6.9-1.2
		c-3.3,0-6.1,0.7-8.6,2.1c-2.4,1.4-4.3,3.5-5.5,6.2c-1.3,2.7-1.9,6-1.9,10c0,6,1.5,10.5,4.5,13.6c3,3.1,7.1,4.6,12.3,4.6
		c2.7,0,5-0.4,6.9-1.1c1.9-0.7,3.7-1.6,5.3-2.5c0.9,0.7,1.7,1.6,2.3,2.7c0.6,1.1,0.9,2.3,0.9,3.8c0,1.2-0.3,2.4-1,3.4
		c-0.7,1.1-1.8,2-3.3,2.7c-1.2,0.6-2.9,1.2-5,1.8c-2.2,0.6-4.8,0.8-7.9,0.8c-5.5,0-10.4-1.1-14.9-3.2c-4.5-2.1-8-5.4-10.6-9.8
		c-2.6-4.4-3.9-10-3.9-16.8c0-6.4,1.3-11.9,3.9-16.3c2.6-4.4,6-7.8,10.4-10.1c4.3-2.3,9.1-3.4,14.4-3.4c3.7,0,6.8,0.4,9.5,1.3
		c2.7,0.8,4.7,2,6.1,3.3C798,309.4,798.7,310.9,798.7,312.7z"/>
	<path class="st3" d="M832.8,316.8h-0.6c-0.6,2-1.3,4.2-2.2,6.6c-0.8,2.4-1.7,4.9-2.6,7.6c-0.9,2.6-1.7,5.3-2.5,7.9l-1.7,8.4
		c-0.4,1.2-0.7,2.4-1.1,3.7c-0.3,1.3-0.7,2.6-1.1,3.8c-0.4,1.2-0.7,2.4-1,3.5c-0.3,1.1-0.6,2.2-0.9,3.2c-0.7,0.2-1.5,0.4-2.3,0.6
		c-0.9,0.2-1.9,0.3-3.1,0.3c-2.6,0-4.6-0.5-6-1.4c-1.4-0.9-2-2.3-2-4.1c0-0.7,0.1-1.5,0.3-2.3c0.2-0.8,0.5-1.7,0.8-2.8
		c0.6-2,1.3-4.6,2.4-7.7c1-3.1,2.1-6.5,3.3-10.1c1.2-3.6,2.4-7.2,3.7-10.7c1.3-3.5,2.4-6.8,3.5-9.8c1.1-3,2-5.3,2.7-7
		c0.9-0.6,2.2-1.1,4.1-1.5c1.9-0.5,3.8-0.7,5.6-0.7c2.7,0,5.1,0.4,7.2,1.2c2.1,0.8,3.4,2,4,3.7c1.2,3.3,2.5,7.1,3.9,11.4
		c1.4,4.3,2.8,8.8,4.2,13.5c1.4,4.7,2.8,9.3,4.1,13.7c1.3,4.4,2.5,8.4,3.5,11.9c-0.7,0.7-1.7,1.4-3,1.9c-1.3,0.5-2.9,0.8-4.6,0.8
		c-2.5,0-4.3-0.5-5.4-1.4c-1.1-0.9-1.9-2.3-2.4-4.2l-3-10.4l-1.6-7.9c-0.7-2.8-1.5-5.5-2.3-8.1c-0.8-2.6-1.6-5.1-2.2-7.4
		C834,320.6,833.4,318.6,832.8,316.8z M817.1,348.8l5.5-11h21.8l1.9,11H817.1z"/>
</g>
<g>
	<path class="st3" d="M143.5,567.1c-2.5,4.3-6,7.5-10.4,9.6c-4.5,2.1-9.7,3.2-15.7,3.2c-2,0-4.4-0.1-7.3-0.4s-5.5-0.8-7.8-1.7
		c-3.1-1.1-4.7-3.2-4.7-6v-43c0-1.2,0.3-2.1,1-2.7c0.7-0.6,1.5-1.2,2.6-1.6c2.4-0.8,5-1.3,7.7-1.5c2.8-0.2,5.3-0.4,7.6-0.4
		c6.2,0,11.6,1,16.2,3.1c4.6,2.1,8.2,5.2,10.8,9.4c2.6,4.2,3.9,9.5,3.9,15.9C147.3,557.5,146,562.9,143.5,567.1z M131.1,541.4
		c-1.4-2.6-3.2-4.5-5.6-5.8c-2.4-1.3-5.1-1.9-8.2-1.9c-1.1,0-2.1,0-3.1,0.1c-1,0.1-2,0.2-3,0.3v34.1c0.9,0.2,1.9,0.3,3.1,0.4
		c1.1,0.1,2.2,0.1,3.2,0.1c4.7,0,8.5-1.5,11.4-4.4c2.8-2.9,4.3-7.3,4.3-13C133.1,547.3,132.5,544,131.1,541.4z"/>
	<path class="st3" d="M178.6,535.4H178c-0.6,1.9-1.3,4.1-2.1,6.4s-1.6,4.8-2.5,7.3c-0.8,2.6-1.7,5.1-2.4,7.6l-1.6,8.1
		c-0.4,1.1-0.7,2.3-1,3.6c-0.3,1.3-0.7,2.5-1,3.7c-0.4,1.2-0.7,2.3-1,3.4c-0.3,1.1-0.6,2.1-0.9,3.1c-0.7,0.2-1.4,0.4-2.2,0.6
		c-0.8,0.2-1.8,0.3-3,0.3c-2.5,0-4.4-0.5-5.8-1.4c-1.3-0.9-2-2.2-2-4c0-0.7,0.1-1.5,0.3-2.2c0.2-0.8,0.5-1.7,0.8-2.7
		c0.5-2,1.3-4.5,2.3-7.5s2.1-6.3,3.2-9.8c1.2-3.5,2.4-7,3.6-10.4c1.2-3.4,2.4-6.6,3.4-9.5c1-2.9,1.9-5.1,2.6-6.8
		c0.8-0.5,2.2-1,4-1.5c1.8-0.4,3.6-0.7,5.4-0.7c2.6,0,4.9,0.4,6.9,1.1c2,0.8,3.3,1.9,3.9,3.6c1.1,3.2,2.4,6.9,3.7,11
		c1.4,4.2,2.7,8.5,4.1,13.1c1.4,4.6,2.7,9,4,13.3c1.3,4.3,2.4,8.1,3.4,11.6c-0.7,0.7-1.6,1.3-2.9,1.8c-1.3,0.5-2.8,0.8-4.5,0.8
		c-2.5,0-4.2-0.5-5.2-1.4c-1-0.9-1.8-2.2-2.3-4l-2.9-10.1l-1.5-7.7c-0.7-2.7-1.5-5.3-2.2-7.8c-0.8-2.5-1.5-4.9-2.2-7.2
		C179.7,539.1,179.1,537.1,178.6,535.4z M163.4,566.4l5.3-10.6h21.1l1.8,10.6H163.4z"/>
	<path class="st3" d="M248.4,565c-0.7,0.5-1.5,1-2.7,1.3c-1.1,0.4-2.4,0.5-3.8,0.5c-1.9,0-3.4-0.2-4.7-0.7c-1.3-0.5-2.1-1.3-2.4-2.4
		c-2-5.7-3.8-10.4-5.2-14.2c-1.4-3.8-2.5-7-3.3-9.8h-0.5c-0.2,3.8-0.3,7.2-0.5,10.4c-0.1,3.1-0.2,6.2-0.3,9.1c-0.1,3-0.2,6-0.3,9
		c-0.1,3.1-0.3,6.4-0.5,10.1c-0.7,0.2-1.5,0.4-2.7,0.6c-1.1,0.2-2.2,0.4-3.3,0.4c-2.3,0-4.1-0.4-5.4-1.2c-1.3-0.8-1.9-2.1-1.9-4
		c0-1.3,0.1-3.3,0.2-5.9c0.1-2.6,0.3-5.6,0.5-9c0.2-3.4,0.4-7,0.6-10.8c0.2-3.8,0.4-7.5,0.7-11.2s0.5-7.1,0.8-10.2
		c0.5-0.7,1.4-1.5,2.9-2.2c1.4-0.8,3.4-1.1,5.9-1.1c2.7,0,4.9,0.4,6.5,1.3c1.6,0.9,2.8,2.3,3.6,4.3c0.9,2.2,1.9,4.7,2.9,7.5
		c1,2.9,2,5.7,3,8.6c1,2.9,1.9,5.5,2.7,7.9h0.4c1.7-5.3,3.4-10.4,5.2-15.5c1.8-5,3.3-9.2,4.5-12.6c0.8-0.5,1.9-0.9,3.2-1.1
		c1.3-0.3,2.7-0.4,4.1-0.4c2.6,0,4.7,0.4,6.3,1.1c1.6,0.8,2.5,1.9,2.8,3.4c0.2,1.1,0.5,2.9,0.8,5.4c0.3,2.5,0.6,5.3,0.9,8.5
		c0.3,3.2,0.6,6.6,0.9,10.1c0.3,3.5,0.6,6.9,0.9,10.3c0.3,3.3,0.5,6.3,0.7,9c0.2,2.6,0.3,4.7,0.4,6.3c-0.9,0.5-1.8,0.9-2.8,1.2
		c-1,0.3-2.2,0.4-3.7,0.4c-1.9,0-3.6-0.4-4.9-1.1s-2.1-2.1-2.2-4.1c-0.3-4.7-0.5-9.1-0.7-13.4c-0.2-4.2-0.3-8.1-0.4-11.6
		c-0.1-3.5-0.2-6.5-0.3-9H257c-0.8,2.6-1.9,5.8-3.3,9.8C252.3,553.8,250.5,558.8,248.4,565z"/>
	<path class="st3" d="M305.6,555.5l1.1-7.5c5,0,9.1,0.6,12.4,1.8c3.3,1.2,5.8,2.9,7.4,5c1.6,2.2,2.5,4.8,2.5,7.8
		c0,5.8-2.2,10.1-6.5,13c-4.3,2.8-10.5,4.2-18.5,4.2c-1.4,0-3.1-0.1-4.9-0.2c-1.8-0.1-3.7-0.3-5.6-0.6c-1.9-0.3-3.6-0.7-5.2-1.3
		c-3.1-1.1-4.7-3.2-4.7-6v-43c0-1.1,0.3-2,1-2.7c0.7-0.7,1.5-1.2,2.6-1.5c2-0.7,4.5-1.2,7.4-1.5c2.9-0.3,5.9-0.5,9-0.5
		c7.4,0,13.2,1.3,17.2,3.9c4,2.6,6.1,6.5,6.1,11.7c0,2.9-0.8,5.3-2.5,7.4c-1.7,2-4.1,3.6-7.3,4.7c-3.2,1.1-7.1,1.6-11.7,1.6l-0.6-6
		c2.9,0,5-0.6,6.4-1.7c1.4-1.1,2.1-2.8,2.1-4.9c0-2-0.8-3.5-2.4-4.6c-1.6-1.1-4-1.6-7.2-1.6c-1.1,0-2.3,0-3.6,0.1
		c-1.3,0.1-2.3,0.2-3.1,0.4v35c1,0.2,2.3,0.4,3.7,0.5c1.5,0.1,2.9,0.2,4.2,0.2c3,0,5.4-0.6,7.2-1.8c1.8-1.2,2.7-3,2.7-5.4
		c0-2.3-0.8-4-2.3-5C311,556.1,308.7,555.5,305.6,555.5z M312.3,545.8v9.7h-20.1v-9.7H312.3z"/>
	<path class="st3" d="M392,551.2c0,6.2-1.2,11.5-3.6,15.8c-2.4,4.3-5.8,7.5-10,9.8s-9,3.3-14.4,3.3c-5.3,0-10.1-1.1-14.3-3.3
		c-4.2-2.2-7.5-5.5-9.9-9.8c-2.4-4.3-3.6-9.6-3.6-15.8c0-6.2,1.2-11.5,3.7-15.8c2.5-4.3,5.8-7.5,10-9.7c4.2-2.2,8.9-3.3,14.1-3.3
		c5.3,0,10,1.1,14.3,3.3c4.2,2.2,7.6,5.4,10,9.7C390.7,539.7,392,545,392,551.2z M377.8,551.2c0-5.8-1.2-10.1-3.7-13.1
		c-2.5-3-5.9-4.5-10.1-4.5c-4.1,0-7.4,1.5-9.9,4.5c-2.5,3-3.8,7.4-3.8,13.2c0,5.9,1.2,10.3,3.7,13.3c2.5,3,5.8,4.5,10,4.5
		c4.2,0,7.5-1.5,10-4.5C376.6,561.5,377.8,557.1,377.8,551.2z"/>
	<path class="st3" d="M441.8,555.5l1.1-7.5c5,0,9.1,0.6,12.4,1.8c3.3,1.2,5.8,2.9,7.4,5c1.6,2.2,2.5,4.8,2.5,7.8
		c0,5.8-2.2,10.1-6.5,13c-4.3,2.8-10.5,4.2-18.5,4.2c-1.4,0-3.1-0.1-4.9-0.2c-1.8-0.1-3.7-0.3-5.6-0.6c-1.9-0.3-3.6-0.7-5.2-1.3
		c-3.1-1.1-4.7-3.2-4.7-6v-43c0-1.1,0.3-2,1-2.7c0.7-0.7,1.5-1.2,2.6-1.5c2-0.7,4.5-1.2,7.4-1.5c2.9-0.3,5.9-0.5,9-0.5
		c7.4,0,13.2,1.3,17.2,3.9c4,2.6,6.1,6.5,6.1,11.7c0,2.9-0.8,5.3-2.5,7.4c-1.7,2-4.1,3.6-7.3,4.7c-3.2,1.1-7.1,1.6-11.7,1.6l-0.6-6
		c2.9,0,5-0.6,6.4-1.7c1.4-1.1,2.1-2.8,2.1-4.9c0-2-0.8-3.5-2.4-4.6c-1.6-1.1-4-1.6-7.2-1.6c-1.1,0-2.3,0-3.6,0.1
		c-1.3,0.1-2.3,0.2-3.1,0.4v35c1,0.2,2.3,0.4,3.7,0.5c1.5,0.1,2.9,0.2,4.2,0.2c3,0,5.4-0.6,7.2-1.8c1.8-1.2,2.7-3,2.7-5.4
		c0-2.3-0.8-4-2.3-5C447.3,556.1,445,555.5,441.8,555.5z M448.6,545.8v9.7h-20.1v-9.7H448.6z"/>
	<path class="st3" d="M497.2,535.4h-0.5c-0.6,1.9-1.3,4.1-2.1,6.4s-1.6,4.8-2.5,7.3c-0.8,2.6-1.7,5.1-2.4,7.6l-1.6,8.1
		c-0.4,1.1-0.7,2.3-1,3.6c-0.3,1.3-0.7,2.5-1,3.7c-0.4,1.2-0.7,2.3-1,3.4c-0.3,1.1-0.6,2.1-0.9,3.1c-0.7,0.2-1.4,0.4-2.2,0.6
		c-0.8,0.2-1.8,0.3-3,0.3c-2.5,0-4.4-0.5-5.8-1.4c-1.3-0.9-2-2.2-2-4c0-0.7,0.1-1.5,0.3-2.2c0.2-0.8,0.5-1.7,0.8-2.7
		c0.5-2,1.3-4.5,2.3-7.5s2.1-6.3,3.2-9.8c1.2-3.5,2.4-7,3.6-10.4c1.2-3.4,2.4-6.6,3.4-9.5c1-2.9,1.9-5.1,2.6-6.8
		c0.8-0.5,2.2-1,4-1.5c1.8-0.4,3.6-0.7,5.4-0.7c2.6,0,4.9,0.4,6.9,1.1c2,0.8,3.3,1.9,3.9,3.6c1.1,3.2,2.4,6.9,3.7,11
		c1.4,4.2,2.7,8.5,4.1,13.1c1.4,4.6,2.7,9,4,13.3c1.3,4.3,2.4,8.1,3.4,11.6c-0.7,0.7-1.6,1.3-2.9,1.8c-1.3,0.5-2.8,0.8-4.5,0.8
		c-2.5,0-4.2-0.5-5.2-1.4c-1-0.9-1.8-2.2-2.3-4l-2.9-10.1l-1.5-7.7c-0.7-2.7-1.5-5.3-2.2-7.8c-0.8-2.5-1.5-4.9-2.2-7.2
		C498.3,539.1,497.7,537.1,497.2,535.4z M482,566.4l5.3-10.6h21.1l1.8,10.6H482z"/>
	<path class="st3" d="M551.6,560.2h-20.7v-31.4c0-1.1,0.3-2,1-2.7c0.7-0.7,1.5-1.2,2.6-1.5c2-0.7,4.3-1.2,7-1.5
		c2.7-0.3,5.4-0.5,8.3-0.5c8.1,0,14.2,1.7,18.3,5.1c4.1,3.4,6.1,8,6.1,13.8c0,3.6-1,6.8-2.9,9.7c-2,2.9-4.6,5.1-8,6.7
		C559.9,559.4,556,560.2,551.6,560.2z M530.9,555.1h13.7v23.4c-0.5,0.2-1.4,0.3-2.6,0.5c-1.2,0.1-2.4,0.2-3.7,0.2
		c-2.7,0-4.6-0.5-5.7-1.4c-1.1-1-1.7-2.6-1.7-5V555.1z M544.5,549.6h5.9c3,0,5.4-0.7,7.2-2c1.8-1.3,2.7-3.3,2.7-6
		c0-2.6-0.9-4.5-2.6-5.9c-1.7-1.4-4.4-2-8-2c-1,0-2,0-2.8,0.1c-0.8,0.1-1.7,0.2-2.4,0.4V549.6z M549.1,557l12.2-2.9
		c1.4,1.9,2.8,3.8,4.3,5.7c1.5,1.9,2.9,3.7,4.2,5.4c1.4,1.7,2.6,3.3,3.6,4.8c1.1,1.5,1.9,2.7,2.6,3.7c-0.5,1.8-1.5,3.2-2.9,4.2
		c-1.4,1-2.9,1.5-4.7,1.5c-2.2,0-3.9-0.5-5.1-1.5s-2.3-2.3-3.3-3.9L549.1,557z"/>
	<path class="st3" d="M625.3,535.4h-0.5c-0.6,1.9-1.3,4.1-2.1,6.4c-0.8,2.3-1.6,4.8-2.5,7.3c-0.8,2.6-1.7,5.1-2.4,7.6l-1.6,8.1
		c-0.4,1.1-0.7,2.3-1,3.6c-0.3,1.3-0.7,2.5-1,3.7c-0.4,1.2-0.7,2.3-1,3.4c-0.3,1.1-0.6,2.1-0.9,3.1c-0.7,0.2-1.4,0.4-2.2,0.6
		c-0.8,0.2-1.8,0.3-3,0.3c-2.5,0-4.4-0.5-5.8-1.4c-1.3-0.9-2-2.2-2-4c0-0.7,0.1-1.5,0.3-2.2c0.2-0.8,0.5-1.7,0.8-2.7
		c0.5-2,1.3-4.5,2.3-7.5s2.1-6.3,3.2-9.8c1.2-3.5,2.4-7,3.6-10.4c1.2-3.4,2.4-6.6,3.4-9.5c1-2.9,1.9-5.1,2.6-6.8
		c0.8-0.5,2.2-1,4-1.5c1.8-0.4,3.6-0.7,5.4-0.7c2.6,0,4.9,0.4,6.9,1.1c2,0.8,3.3,1.9,3.9,3.6c1.1,3.2,2.4,6.9,3.7,11
		c1.4,4.2,2.7,8.5,4.1,13.1c1.4,4.6,2.7,9,4,13.3c1.3,4.3,2.4,8.1,3.4,11.6c-0.7,0.7-1.6,1.3-2.9,1.8c-1.3,0.5-2.8,0.8-4.5,0.8
		c-2.5,0-4.2-0.5-5.2-1.4c-1-0.9-1.8-2.2-2.3-4L633,564l-1.5-7.7c-0.7-2.7-1.5-5.3-2.2-7.8c-0.8-2.5-1.5-4.9-2.2-7.2
		S625.8,537.1,625.3,535.4z M610,566.4l5.3-10.6h21.1l1.8,10.6H610z"/>
	<path class="st3" d="M707,558.4v18.4c-0.8,0.7-1.9,1.3-3.3,1.8c-1.4,0.4-3.1,0.7-5,0.7c-2,0-3.9-0.3-5.7-1
		c-1.8-0.7-3.2-2.1-4.4-4.4l-10.9-20.7c-0.7-1.3-1.3-2.6-1.9-4s-1.2-2.7-1.8-4c-0.6-1.3-1.2-2.7-1.8-4.1l-13.1,3v-17.7
		c0.7-1,1.8-1.8,3.4-2.3c1.5-0.5,3.2-0.8,5-0.8c2,0,3.9,0.3,5.6,1c1.8,0.7,3.2,2.1,4.4,4.3l11,20.8c0.7,1.3,1.3,2.6,2,3.9
		c0.7,1.4,1.3,2.7,1.9,4c0.6,1.3,1.2,2.7,1.7,4L707,558.4z M659,539.6l12.4-0.2c0.2,2.6,0.4,5.1,0.5,7.7c0.1,2.5,0.2,4.9,0.2,7.3
		c0,2.3,0,4.6,0,6.8v17.4c-0.5,0.1-1.4,0.3-2.6,0.4c-1.2,0.1-2.4,0.2-3.6,0.2c-2.6,0-4.5-0.4-5.5-1.3c-1.1-0.9-1.6-2.5-1.6-4.9
		V539.6z M707,562.7l-12.5,0.1c-0.4-4.4-0.7-8.6-0.7-12.5c-0.1-4-0.1-7.7-0.1-11.3v-15.1c0.6-0.1,1.5-0.3,2.6-0.4
		c1.1-0.2,2.3-0.3,3.6-0.3c2.6,0,4.4,0.5,5.5,1.4c1.1,0.9,1.6,2.5,1.6,4.8V562.7z"/>
	<path class="st3" d="M765.6,567.1c-2.5,4.3-6,7.5-10.4,9.6c-4.5,2.1-9.7,3.2-15.7,3.2c-2,0-4.4-0.1-7.3-0.4s-5.5-0.8-7.8-1.7
		c-3.1-1.1-4.7-3.2-4.7-6v-43c0-1.2,0.3-2.1,1-2.7c0.7-0.6,1.5-1.2,2.6-1.6c2.4-0.8,5-1.3,7.7-1.5c2.8-0.2,5.3-0.4,7.6-0.4
		c6.2,0,11.6,1,16.2,3.1c4.6,2.1,8.2,5.2,10.8,9.4c2.6,4.2,3.9,9.5,3.9,15.9C769.3,557.5,768.1,562.9,765.6,567.1z M753.2,541.4
		c-1.3-2.6-3.2-4.5-5.6-5.8c-2.4-1.3-5.1-1.9-8.2-1.9c-1.1,0-2.1,0-3.1,0.1s-2,0.2-3,0.3v34.1c0.9,0.2,1.9,0.3,3.1,0.4
		c1.1,0.1,2.2,0.1,3.2,0.1c4.7,0,8.5-1.5,11.4-4.4c2.8-2.9,4.3-7.3,4.3-13C755.2,547.3,754.5,544,753.2,541.4z"/>
	<path class="st3" d="M817.2,561h-19.9v-32.2c0-1.1,0.3-2,1-2.7c0.7-0.7,1.5-1.2,2.6-1.5c2-0.7,4.3-1.2,7.1-1.5
		c2.8-0.3,5.2-0.5,7.5-0.5c8.1,0,14.2,1.7,18.4,5.2c4.2,3.5,6.3,8.1,6.3,14.1c0,3.8-0.9,7.2-2.7,10.1c-1.8,2.9-4.5,5.1-7.9,6.7
		C826.1,560.2,822,561,817.2,561z M797.3,555H811v23.5c-0.5,0.2-1.4,0.3-2.6,0.5c-1.2,0.1-2.4,0.2-3.7,0.2c-2.7,0-4.6-0.5-5.7-1.4
		c-1.1-1-1.7-2.6-1.7-5V555z M810.9,550.2h5.4c3.1,0,5.5-0.7,7.2-2.2c1.8-1.4,2.7-3.5,2.7-6.2c0-2.7-0.8-4.7-2.5-6.1
		c-1.7-1.4-4.1-2.1-7.3-2.1c-1.1,0-2.1,0-2.9,0.1c-0.9,0.1-1.7,0.2-2.6,0.3V550.2z"/>
	<path class="st3" d="M863,557.8h-13.7v-33.9c0.6-0.1,1.5-0.3,2.7-0.4c1.2-0.2,2.4-0.3,3.6-0.3c2.6,0,4.5,0.5,5.7,1.4
		c1.1,0.9,1.7,2.6,1.7,5.1V557.8z M849.4,540.7H863V578l-6.4,0.7c-2.2,0-4-0.7-5.3-2c-1.3-1.3-2-3.1-2-5.3V540.7z M856.6,578.8
		v-11.2h28.3c0.4,0.6,0.8,1.4,1.1,2.3c0.3,0.9,0.5,2,0.5,3.1c0,1.9-0.4,3.4-1.3,4.3c-0.8,1-2,1.4-3.5,1.4H856.6z"/>
	<path class="st3" d="M918.1,535.4h-0.5c-0.6,1.9-1.3,4.1-2.1,6.4c-0.8,2.3-1.6,4.8-2.5,7.3c-0.8,2.6-1.7,5.1-2.4,7.6l-1.6,8.1
		c-0.4,1.1-0.7,2.3-1,3.6c-0.3,1.3-0.7,2.5-1,3.7c-0.4,1.2-0.7,2.3-1,3.4c-0.3,1.1-0.6,2.1-0.9,3.1c-0.7,0.2-1.4,0.4-2.2,0.6
		c-0.8,0.2-1.8,0.3-3,0.3c-2.5,0-4.4-0.5-5.8-1.4c-1.3-0.9-2-2.2-2-4c0-0.7,0.1-1.5,0.3-2.2c0.2-0.8,0.5-1.7,0.8-2.7
		c0.5-2,1.3-4.5,2.3-7.5s2.1-6.3,3.2-9.8s2.4-7,3.6-10.4c1.2-3.4,2.4-6.6,3.4-9.5c1-2.9,1.9-5.1,2.6-6.8c0.8-0.5,2.2-1,4-1.5
		c1.8-0.4,3.6-0.7,5.4-0.7c2.6,0,4.9,0.4,6.9,1.1c2,0.8,3.3,1.9,3.9,3.6c1.1,3.2,2.4,6.9,3.7,11c1.4,4.2,2.7,8.5,4.1,13.1
		c1.4,4.6,2.7,9,4,13.3c1.3,4.3,2.4,8.1,3.4,11.6c-0.7,0.7-1.6,1.3-2.9,1.8c-1.3,0.5-2.8,0.8-4.5,0.8c-2.5,0-4.2-0.5-5.2-1.4
		c-1-0.9-1.8-2.2-2.3-4l-2.9-10.1l-1.5-7.7c-0.7-2.7-1.5-5.3-2.2-7.8c-0.8-2.5-1.5-4.9-2.2-7.2C919.2,539.1,918.6,537.1,918.1,535.4
		z M902.9,566.4l5.3-10.6h21.1l1.8,10.6H902.9z"/>
	<path class="st3" d="M974.1,561h-12.2c-1.6-2.3-3.3-4.9-5.1-7.7c-1.9-2.9-3.7-5.9-5.5-9c-1.8-3.1-3.5-6.1-5.1-9
		c-1.6-2.9-2.9-5.5-3.8-7.7c0.7-1,1.6-1.9,2.7-2.7c1.2-0.8,2.7-1.3,4.5-1.3c2,0,3.7,0.4,5,1.3c1.3,0.9,2.5,2.4,3.6,4.7
		c0.8,1.4,1.6,2.9,2.4,4.5c0.8,1.5,1.6,3.1,2.4,4.7c0.8,1.6,1.6,3.1,2.4,4.7c0.8,1.5,1.6,3,2.3,4.4h0.5c1.4-2.8,2.6-5.3,3.7-7.6
		c1.1-2.3,2.1-4.7,3.2-7.2c1-2.4,2.2-5.1,3.5-8c0.9-0.5,1.9-0.8,3.1-1.1c1.1-0.2,2.2-0.4,3.2-0.4c1.9,0,3.4,0.5,4.7,1.4
		c1.3,1,1.9,2.4,1.9,4.3c0,0.7-0.3,1.8-0.8,3.2c-0.5,1.4-1.5,3.3-2.8,5.7c-1.3,2.4-3.1,5.5-5.3,9.2
		C980.2,551.2,977.4,555.7,974.1,561z M961.1,556.1h13.5v22.4c-0.6,0.2-1.5,0.3-2.7,0.5c-1.2,0.1-2.4,0.2-3.6,0.2
		c-2.7,0-4.6-0.5-5.7-1.4s-1.6-2.6-1.6-4.9V556.1z"/>
</g>
</svg>
