<?xml version="1.0" encoding="utf-8"?>
<!-- Generator: Adobe Illustrator 27.1.1, SVG Export Plug-In . SVG Version: 6.00 Build 0)  -->
<svg version="1.1" id="Layer_1" xmlns="http://www.w3.org/2000/svg" xmlns:xlink="http://www.w3.org/1999/xlink" x="0px" y="0px"
	 viewBox="0 0 600 600" style="enable-background:new 0 0 600 600;" xml:space="preserve">
<style type="text/css">
	.st0{fill:#BDB9A3;}
	.st1{fill:#F8ABAA;}
	.st2{fill:#A4A18C;}
	.st3{fill:#8F8C7B;}
	.st4{fill:#4D3830;}
	.st5{fill:#E5E0C7;}
</style>
<g>
	<path class="st0" d="M424.49,61.95c5.9-2.43,10.25-6.2,17.18-7.96c6.66-1.69,12.77-4.33,19.52-5.75
		c15.02-3.15,36.59,0.98,49.66,9.08c14.39,8.92,18.82,28.78,21.4,44.49c3.3,20.13,2.52,37.37-5.99,56.07
		c-5.41,11.89-10.56,22.74-20.68,31.24c-10.03,8.43-22.15,13.62-34.85,16.75c-18.58,4.58-38.73-3.42-53.19-15.19L424.49,61.95z"/>
	<path class="st1" d="M484.79,83.07c-13.13-7.83-35.9-1.26-48.2-1.26l-12.31,93.21c-1.81-0.4-2.82-1.29-4.76-1.07
		c4.85,2.37,10.42,2.05,16.04,2.1c17.89,0.15,33.8,3.59,48.97-8.45c11.83-9.39,16.93-24.32,18.49-38.67
		C504.79,112.61,500.06,92.17,484.79,83.07z"/>
	<path class="st0" d="M161.07,79.42c-6.32-0.87-11.48-3.44-18.63-3.41c-6.88,0.03-13.45-1-20.34-0.68
		c-15.33,0.7-35.18,10.09-45.81,21.21c-11.7,12.23-11.01,32.57-9.57,48.43c1.84,20.31,6.92,36.81,19.84,52.79
		c8.21,10.16,15.92,19.38,27.85,25.08c11.82,5.65,24.85,7.65,37.94,7.51c19.14-0.21,36.64-12.99,47.69-28L161.07,79.42z"/>
	<path class="st1" d="M160.72,101.27c-17.66-0.13-31.02,0.21-46.15,11.02c-14.32,10.23-17.11,28.45-12.28,44.27
		c10.05,32.88,49.81,52,81.22,37.16c2.92-1.38,8.19-4.55,9-5.38L160.72,101.27z"/>
	<path class="st2" d="M434.6,371.68c-10.74-80.01-35.86-110.16-55.38-159.79l-140.62-0.46c0,0-36.8,86.98-41.41,155.98
		c-3.55,53.17-21.87,107.57,5.64,205.03c5.96,21.13,77.02,11.4,77.53,2.18c1.16-20.77-5.73-51.31,17.43-55.31
		c8.78-1.12,29.34-2.71,41.02-1.02c16.41,4.1,22.05,20.96,16.92,51.72c-2.56,15.36,70.66,17.29,73.74,3.46
		C451.49,474.63,439.73,409.89,434.6,371.68z"/>
	<path class="st2" d="M249.52,281.33c-1.85,0.17-1.83,1.34-2.68,2.27L227,264.28c-9.36,1.42-89.03,15.63-92.91,43.99
		c-2.07,15.1,0.73,34.49,10.35,46.4c12.84,15.91,23.98,6.54,37.27-1.77c16.15-10.11,35.8-8.58,52.57-18.08
		C257.38,321.74,253.36,304.69,249.52,281.33z"/>
	<path class="st2" d="M374.18,324.01c1.21-1.41,2.16-0.71,3.4-0.86l-4.28-27.34c6.58-6.8,64.33-63.42,89.72-50.15
		c13.52,7.07,27.72,20.58,31.87,35.3c5.54,19.67-8.55,23.31-23.04,29.32c-17.6,7.29-27.74,24.18-45.21,32.33
		C402.61,353.82,391.02,340.68,374.18,324.01z"/>
	<path class="st1" d="M143.35,300.32c9.7-6.71,19.83,2.73,22.56,18.44c2.73,15.71,5.05,31.81-2.05,38.24
		c-9.17,8.3-21.19-5.46-23.93-22.53C137.2,317.4,134.47,306.47,143.35,300.32z"/>
	<path class="st1" d="M453.65,248.63c-9.91,1-11.62,12.5,0.59,26.19c12.21,13.69,27.89,26.01,34.01,20.24
		c6.12-5.77,4.31-18.45-8.3-31.08C468.48,252.52,463.34,247.65,453.65,248.63z"/>
	<g>
		<path class="st1" d="M218.22,569.36c-4.84,0.32-6.23,6.07-5.83,11.07c4.06,2.05,9.39,3.34,15.3,4.03
			C226.06,578.17,226.07,568.84,218.22,569.36z"/>
		<path class="st1" d="M273.92,580.24c-0.95-5.4-2.69-10.65-5.32-12.44c-7.4-5.03-5.63,9.31-5.67,15.14
			C267.08,582.18,270.84,581.26,273.92,580.24z"/>
		<path class="st1" d="M252.06,576.03c-1.89-7.27-10.77-15.3-16.02-5.11c-0.82,1.59,0,8.9-0.46,14.11c6.38,0.2,13.06-0.15,19.3-0.89
			C253.57,581.12,252.51,577.77,252.06,576.03z"/>
	</g>
	<g>
		<path class="st1" d="M397.8,563.61c-10.23-3.36-11.12,10.91-13.05,17.03c-0.17,0.55-0.36,1.08-0.56,1.58
			c6.42,0.59,13.24,0.72,19.63,0.37C402.96,576,407.18,566.69,397.8,563.61z"/>
		<path class="st1" d="M374.11,572.93c-3.46-7.53-7.38-0.92-9.41,5.31c2.91,1.13,6.46,2.05,10.4,2.76
			C374.55,578.43,375.34,575.61,374.11,572.93z"/>
		<path class="st1" d="M410.22,582.05c4.4-0.5,8.4-1.27,11.67-2.31c-0.62-5.38-2.59-9.56-7.16-7.69
			C413.45,572.57,411.91,577.83,410.22,582.05z"/>
	</g>
	<path class="st3" d="M259.75,239.04c0,0-16.41,79.38-13.84,115.23c2.56,35.85,21.88,75.11,73.15,74.43
		c52.64-0.7,74.01-42.68,70.93-81.09c-3.08-38.41-28.2-116.77-28.2-116.77L259.75,239.04z"/>
	<path class="st2" d="M278.87,18.96c-55.78,2.25-128.87,35.53-125.8,89.25c6.99,122.45,69.72,159.29,146.21,162.12
		c81.19,3.01,145.69-45.71,146.08-146.03C445.68,38.09,380.35,14.86,278.87,18.96z"/>
	<path class="st4" d="M396.16,113.83c-0.66,4.27-4.66,7.19-8.93,6.53c-4.27-0.66-7.2-4.66-6.54-8.92c0.66-4.27,4.66-7.19,8.93-6.53
		C393.89,105.56,396.82,109.56,396.16,113.83z"/>
	<path class="st4" d="M394.05,81.27c3.78,1.29,20.12,7.28,16.9,13.3c-0.99,1.41-2.56,1.56-15.11-4.9
		C386.27,84.74,390.13,79.93,394.05,81.27z"/>
	<path class="st4" d="M218.4,133.7c0.71,4.26-2.17,8.29-6.43,9c-4.26,0.71-8.3-2.16-9.01-6.42c-0.71-4.26,2.17-8.29,6.43-9
		C213.65,126.56,217.69,129.44,218.4,133.7z"/>
	<path class="st4" d="M201.7,102.8c-3.62,1.68-19.24,9.37-15.4,15.01c1.14,1.3,2.71,1.29,14.51-6.47
		C209.8,105.44,205.46,101.06,201.7,102.8z"/>
	<path class="st1" d="M223.69,181.76c0,8.41-6.82,15.22-15.24,15.22c-8.42,0-15.24-6.81-15.24-15.22c0-8.41,6.82-15.22,15.24-15.22
		C216.87,166.55,223.69,173.36,223.69,181.76z"/>
	<path class="st1" d="M415.97,166.4c0,8.41-6.82,15.22-15.24,15.22c-8.41,0-15.24-6.81-15.24-15.22c0-8.41,6.82-15.22,15.24-15.22
		C409.14,151.18,415.97,158,415.97,166.4z"/>
	<g>
		<path class="st4" d="M313.42,249.24c-5.16,0.44-10.69,0.5-16.59,0.08c-41.77-2.96-57.91-25.22-58.58-26.17
			c-0.65-0.93-0.43-2.2,0.5-2.85c0.93-0.65,2.2-0.43,2.86,0.49c0.24,0.34,15.93,21.63,55.52,24.44
			c46.55,3.31,69.15-25.52,69.37-25.81c0.69-0.9,1.98-1.07,2.87-0.39c0.9,0.69,1.08,1.97,0.39,2.87
			C368.91,223.02,350.95,246.05,313.42,249.24z"/>
	</g>
	<path class="st0" d="M415.05,46.99c0,0-40.51-45.07-133.32-32.78c-99.71,13.21-117.42,57.36-117.42,57.36s39.59-23.87,67.17,13.32
		c10.26,13.83,34.35,61.97,36.41,93.72c2.08,32.2,0.03,62.66,1.54,83.48c2.84,39.04,15.13,87.73,21.02,97.82
		c7.18,12.29,30.12,21.04,44.1,16.39c18.46-6.15,25-14.58,26.66-28.68c3.3-27.9-14.44-52.22-17.95-70.16
		c-12.82-65.55,4.73-180.31,9.91-193.93C371.64,35.04,415.05,46.99,415.05,46.99z"/>
	<path class="st1" d="M337.63,377.83c25.49-8.65,29.23-23.05,26.15-37.39c-3.08-14.34-18.97-23.56-40.51-17.92
		c-21.54,5.63-40,18.44-35.38,34.83C292.5,373.73,310.45,387.05,337.63,377.83z"/>
	<path class="st3" d="M307.37,347.79L307.37,347.79c-6.54,2.07-1.19,20.66,5.47,20.52C319.86,368.15,315.09,345.49,307.37,347.79z"
		/>
	<path class="st3" d="M342.45,337.28L342.45,337.28c-6.54,2.07-1.2,20.66,5.47,20.52C354.94,357.64,350.17,334.99,342.45,337.28z"/>
	<g>
		<g>
			<path class="st5" d="M291.75,325.87c11.63-13.54,31.95-17.07,48.95-17.18c3.31-0.02,3.31-5.14,0-5.12
				c-18.3,0.11-40.08,4.12-52.58,18.68C285.99,324.74,289.6,328.38,291.75,325.87L291.75,325.87z"/>
		</g>
		<g>
			<path class="st5" d="M290.73,296.16c9.53-10.96,23.34-14.97,37.5-12.66c3.23,0.53,4.62-4.41,1.36-4.94
				c-15.92-2.6-31.7,1.57-42.49,13.97C284.94,295.02,288.55,298.66,290.73,296.16L290.73,296.16z"/>
		</g>
		<g>
			<path class="st5" d="M288.68,271.07c3.64-3.65,10.09-4.94,14.91-6.11c5.23-1.27,13.26-3.24,18.39-0.66
				c2.95,1.48,5.54-2.94,2.59-4.42c-5.99-3.01-13.65-1.59-19.93-0.38c-6.39,1.23-14.8,3.16-19.58,7.95
				C282.71,269.79,286.34,273.41,288.68,271.07L288.68,271.07z"/>
		</g>
		<g>
			<path class="st5" d="M292.77,247.91c7.43-3.66,15.72-3.74,23.83-3.75c3.31,0,3.31-5.12,0-5.12c-9.1,0.01-18.11,0.36-26.42,4.45
				C287.22,244.95,289.82,249.36,292.77,247.91L292.77,247.91z"/>
		</g>
		<g>
			<path class="st5" d="M297.91,223.95c3.86-3.08,9.92-2.83,14.6-2.84c3.31,0,3.31-5.12,0-5.12c-6.3,0-13.09,0.25-18.22,4.34
				C291.7,222.39,295.35,225.99,297.91,223.95L297.91,223.95z"/>
		</g>
		<g>
			<path class="st5" d="M296.36,204.38c2.89-1.33,7.2-1.81,10.33-1.28c3.23,0.54,4.62-4.39,1.36-4.94
				c-4.62-0.78-10.02-0.16-14.28,1.79C290.77,201.33,293.38,205.75,296.36,204.38L296.36,204.38z"/>
		</g>
		<g>
			<path class="st5" d="M299.44,189.01c1.13-0.71,2.34-1.06,3.66-0.77c1.36,0.3,2.77-0.39,3.15-1.79c0.36-1.29-0.42-2.85-1.79-3.15
				c-2.65-0.58-5.31-0.17-7.62,1.28C294.06,186.35,296.63,190.78,299.44,189.01L299.44,189.01z"/>
		</g>
		<g>
			<path class="st5" d="M299.68,174.51c1.55,0,2.95-0.2,4.37-0.86c1.27-0.59,1.58-2.39,0.92-3.5c-0.75-1.29-2.24-1.51-3.51-0.92
				c0.47-0.22-0.2,0.05-0.27,0.07c-0.1,0.03-0.82,0.12-0.2,0.05c-0.44,0.05-0.88,0.04-1.32,0.04c-1.4,0-2.56,1.16-2.56,2.56
				C297.12,173.34,298.29,174.51,299.68,174.51L299.68,174.51z"/>
		</g>
	</g>
	<path class="st2" d="M468.72,466.26c-8.12,2.72-16.18,6.65-24.84,6.32c-2.3-0.09-11.9-1.16-9.86-3.07l-17.95,12.8
		c0.95,2.79,5.13,2.43,7.69,2.56c16.38,0.81,34.95-4.91,49.23-11.78c13.84-6.66,26.28-19.25,30.3-25.91
		c-3.29,4.62-4.71,1.69-9.62,4.74C487.01,456.06,475.74,463.91,468.72,466.26z"/>
	<path class="st3" d="M511.45,425.62c0.34,8.21-10.42,9.41-17.94,13.84c-3.62,2.14-16.75,8.71-7.69,21.85l0,0
		c6.05,8.61,19.9,6.37,25-3.71c2.33-4.62,3.19-10.48,3.2-15.75C514.03,436.09,511.69,431.33,511.45,425.62z"/>
	<path class="st2" d="M490.6,457.04v-1.37c4.82,4.99,12.7-10.45,14.08-14.27C499.48,444.9,481.07,445.48,490.6,457.04z"/>
</g>
</svg>
