<?xml version="1.0" encoding="UTF-8"?>
<svg id="Layer_1" data-name="Layer 1" xmlns="http://www.w3.org/2000/svg" viewBox="0 0 948.83 124.87">
  <defs>
    <style>
      .cls-1 {
        fill: #d7f5fa;
      }
    </style>
  </defs>
  <path class="cls-1" d="m0,0h948.83v103.57c-13.68,3.46-23.98,5.32-31.32,5.78h0c-2.77.25-9.18.73-17.5.74-10.49,0-25.15-1.24-57.6-6.74-24.34-4.13-51.11-7.81-75.22-3.35-25.05,4.64-42.88,17.42-69.21,19.65-35.91,3.04-64.64-14.5-99-20.58-34.14-6.04-71.92-.29-104.91,7.2-32.99,7.49-65.52,16.89-101.59,18.4-53.25,2.24-64.5-15.57-125.47-20.9-50.85-4.45-66.41,7.35-147.39,12.85-50.2,3.41-92.09,2.58-119.6,1.36V0Z"/>
</svg>