<?xml version="1.0" standalone="no"?>
<svg xmlns:xlink="http://www.w3.org/1999/xlink" id="wave" style="transform:rotate(180deg); transition: 0.3s" viewBox="0 0 1440 490" version="1.1" xmlns="http://www.w3.org/2000/svg"><defs><linearGradient id="sw-gradient-0" x1="0" x2="0" y1="1" y2="0"><stop stop-color="rgba(50, 53, 93, 1)" offset="0%"/><stop stop-color="rgba(50, 53, 93, 1)" offset="100%"/></linearGradient></defs><path style="transform:translate(0, 0px); opacity:1" fill="url(#sw-gradient-0)" d="M0,245L60,261.3C120,278,240,310,360,310.3C480,310,600,278,720,253.2C840,229,960,212,1080,220.5C1200,229,1320,261,1440,269.5C1560,278,1680,261,1800,277.7C1920,294,2040,343,2160,302.2C2280,261,2400,131,2520,130.7C2640,131,2760,261,2880,294C3000,327,3120,261,3240,253.2C3360,245,3480,294,3600,269.5C3720,245,3840,147,3960,114.3C4080,82,4200,114,4320,130.7C4440,147,4560,147,4680,187.8C4800,229,4920,310,5040,302.2C5160,294,5280,196,5400,196C5520,196,5640,294,5760,277.7C5880,261,6000,131,6120,122.5C6240,114,6360,229,6480,285.8C6600,343,6720,343,6840,343C6960,343,7080,343,7200,334.8C7320,327,7440,310,7560,285.8C7680,261,7800,229,7920,196C8040,163,8160,131,8280,171.5C8400,212,8520,327,8580,383.8L8640,441L8640,490L8580,490C8520,490,8400,490,8280,490C8160,490,8040,490,7920,490C7800,490,7680,490,7560,490C7440,490,7320,490,7200,490C7080,490,6960,490,6840,490C6720,490,6600,490,6480,490C6360,490,6240,490,6120,490C6000,490,5880,490,5760,490C5640,490,5520,490,5400,490C5280,490,5160,490,5040,490C4920,490,4800,490,4680,490C4560,490,4440,490,4320,490C4200,490,4080,490,3960,490C3840,490,3720,490,3600,490C3480,490,3360,490,3240,490C3120,490,3000,490,2880,490C2760,490,2640,490,2520,490C2400,490,2280,490,2160,490C2040,490,1920,490,1800,490C1680,490,1560,490,1440,490C1320,490,1200,490,1080,490C960,490,840,490,720,490C600,490,480,490,360,490C240,490,120,490,60,490L0,490Z"/></svg>